{"glyphs":{"0":{"ha":1317,"x_min":92,"x_max":1225,"o":"m 1225 965 l 1225 0 l 92 0 l 92 965 l 1225 965 m 261 63 l 261 903 l 154 903 l 154 63 l 261 63 m 324 101 l 1129 903 l 324 903 l 324 101 m 1163 849 l 374 63 l 1163 63 l 1163 849 z "},"1":{"ha":906,"x_min":47,"x_max":906,"o":"m 610 63 l 906 63 l 906 0 l 47 0 l 47 63 l 378 63 l 378 903 l 47 903 l 47 965 l 610 965 l 610 63 m 547 903 l 440 903 l 440 63 l 547 63 l 547 903 z "},"2":{"ha":1306,"x_min":86,"x_max":1219,"o":"m 1219 965 l 1219 451 l 318 451 l 318 63 l 1157 63 l 1157 257 l 1219 257 l 1219 0 l 86 0 l 86 514 l 988 514 l 988 903 l 149 903 l 149 708 l 86 708 l 86 965 l 1219 965 m 149 451 l 149 63 l 256 63 l 256 451 l 149 451 m 1051 514 l 1157 514 l 1157 903 l 1051 903 l 1051 514 z "},"3":{"ha":1304,"x_min":79,"x_max":1213,"o":"m 79 708 l 79 965 l 1213 965 l 1213 0 l 79 0 l 79 257 l 142 257 l 142 63 l 981 63 l 981 451 l 304 451 l 304 514 l 981 514 l 981 903 l 142 903 l 142 708 l 79 708 m 1043 63 l 1150 63 l 1150 903 l 1043 903 l 1043 63 z "},"4":{"ha":1282,"x_min":57,"x_max":1190,"o":"m 1190 0 l 958 0 l 958 451 l 57 451 l 57 965 l 119 965 l 119 514 l 958 514 l 958 965 l 1190 965 l 1190 0 m 1128 903 l 1022 903 l 1022 63 l 1128 63 l 1128 903 z "},"5":{"ha":1306,"x_min":86,"x_max":1219,"o":"m 1219 965 l 1219 708 l 1157 708 l 1157 903 l 318 903 l 318 514 l 1219 514 l 1219 0 l 86 0 l 86 257 l 149 257 l 149 63 l 988 63 l 988 451 l 86 451 l 86 965 l 1219 965 m 1050 451 l 1050 63 l 1157 63 l 1157 451 l 1050 451 m 254 903 l 149 903 l 149 514 l 254 514 l 254 903 z "},"6":{"ha":1311,"x_min":92,"x_max":1225,"o":"m 1163 708 l 1163 903 l 324 903 l 324 514 l 1225 514 l 1225 0 l 92 0 l 92 965 l 1225 965 l 1225 708 l 1163 708 m 324 451 l 324 63 l 1163 63 l 1163 451 l 324 451 m 260 903 l 154 903 l 154 63 l 260 63 l 260 903 z "},"7":{"ha":1171,"x_min":28,"x_max":1079,"o":"m 1079 0 l 847 0 l 847 903 l 90 903 l 90 708 l 28 708 l 28 965 l 1079 965 l 1079 0 m 1015 903 l 910 903 l 910 63 l 1015 63 l 1015 903 z "},"8":{"ha":1317,"x_min":92,"x_max":1225,"o":"m 1225 0 l 92 0 l 92 965 l 1225 965 l 1225 0 m 1161 451 l 324 451 l 324 63 l 1161 63 l 1161 451 m 324 515 l 1161 515 l 1161 903 l 324 903 l 324 515 m 261 903 l 154 903 l 154 63 l 261 63 l 261 903 z "},"9":{"ha":1311,"x_min":86,"x_max":1219,"o":"m 149 257 l 149 63 l 988 63 l 988 451 l 86 451 l 86 965 l 1219 965 l 1219 0 l 86 0 l 86 257 l 149 257 m 988 514 l 988 903 l 149 903 l 149 514 l 988 514 m 1051 63 l 1157 63 l 1157 903 l 1051 903 l 1051 63 z "}," ":{"ha":349,"x_min":0,"x_max":0,"o":""},"!":{"ha":475,"x_min":93,"x_max":381,"o":"m 342 313 l 132 313 l 93 965 l 381 965 l 342 313 m 314 903 l 160 903 l 192 375 l 282 375 l 314 903 m 371 0 l 104 0 l 104 213 l 371 213 l 371 0 m 308 150 l 167 150 l 167 63 l 308 63 l 308 150 z "},"\"":{"ha":793,"x_min":68,"x_max":725,"o":"m 350 1047 l 308 611 l 110 611 l 68 1047 l 350 1047 m 143 985 l 171 674 l 247 674 l 275 985 l 143 985 m 725 1047 l 683 611 l 485 611 l 443 1047 l 725 1047 m 518 985 l 546 674 l 622 674 l 650 985 l 518 985 z "},"#":{"ha":1190,"x_min":72,"x_max":1118,"o":"m 953 560 l 953 346 l 1118 346 l 1118 283 l 953 283 l 953 78 l 721 78 l 721 283 l 468 283 l 468 78 l 236 78 l 236 283 l 72 283 l 72 346 l 236 346 l 236 560 l 72 560 l 72 622 l 236 622 l 236 829 l 468 829 l 468 622 l 721 622 l 721 829 l 953 829 l 953 622 l 1118 622 l 1118 560 l 953 560 m 404 767 l 299 767 l 299 140 l 404 140 l 404 767 m 721 346 l 721 560 l 468 560 l 468 346 l 721 346 m 889 767 l 783 767 l 783 140 l 889 140 l 889 767 z "},"$":{"ha":1286,"x_min":76,"x_max":1210,"o":"m 1147 708 l 1147 903 l 674 903 l 674 514 l 1210 514 l 1210 0 l 674 0 l 674 -169 l 611 -169 l 611 0 l 76 0 l 76 257 l 139 257 l 139 63 l 611 63 l 611 451 l 76 451 l 76 965 l 611 965 l 611 1135 l 674 1135 l 674 965 l 1210 965 l 1210 708 l 1147 708 m 244 903 l 139 903 l 139 514 l 244 514 l 244 903 m 1040 63 l 1147 63 l 1147 451 l 1040 451 l 1040 63 m 674 451 l 674 63 l 978 63 l 978 451 l 674 451 m 611 903 l 308 903 l 308 514 l 611 514 l 611 903 z "},"%":{"ha":1283,"x_min":61,"x_max":1226,"o":"m 1226 965 l 349 0 l 61 0 l 939 965 l 1226 965 m 1083 903 l 967 903 l 203 63 l 319 63 l 1083 903 m 99 965 l 478 965 l 478 690 l 99 690 l 99 965 m 161 753 l 415 753 l 415 903 l 161 903 l 161 753 m 811 275 l 1190 275 l 1190 0 l 811 0 l 811 275 m 874 63 l 1128 63 l 1128 213 l 874 213 l 874 63 z "},"&":{"ha":949,"x_min":79,"x_max":913,"o":"m 311 810 l 311 515 l 722 515 l 722 453 l 311 453 l 311 157 l 913 157 l 913 94 l 551 94 l 551 -101 l 489 -101 l 489 94 l 79 94 l 79 872 l 489 872 l 489 1069 l 551 1069 l 551 872 l 913 872 l 913 810 l 311 810 m 249 810 l 142 810 l 142 157 l 249 157 l 249 810 z "},"'":{"ha":521,"x_min":61,"x_max":539,"o":"m 539 1047 l 322 631 l 61 631 l 278 1047 l 539 1047 m 283 693 l 435 985 l 315 985 l 164 693 l 283 693 z "},"(":{"ha":535,"x_min":67,"x_max":533,"o":"m 299 53 l 533 -137 l 433 -137 l 67 160 l 67 769 l 433 1065 l 533 1065 l 299 876 l 299 53 m 236 104 l 236 825 l 129 739 l 129 190 l 236 104 z "},")":{"ha":535,"x_min":1,"x_max":468,"o":"m 236 876 l 1 1065 l 101 1065 l 468 769 l 468 160 l 101 -137 l 1 -137 l 236 53 l 236 876 m 406 190 l 406 739 l 299 825 l 299 104 l 406 190 z "},"*":{"ha":818,"x_min":69,"x_max":749,"o":"m 749 882 l 749 669 l 593 669 l 671 535 l 486 428 l 408 563 l 331 428 l 147 535 l 225 669 l 69 669 l 69 882 l 225 882 l 147 1017 l 331 1122 l 408 988 l 486 1122 l 671 1017 l 593 882 l 749 882 m 686 819 l 485 819 l 585 993 l 510 1038 l 408 863 l 308 1038 l 232 993 l 333 819 l 132 819 l 132 732 l 333 732 l 232 557 l 308 514 l 408 688 l 510 514 l 585 557 l 485 732 l 686 732 l 686 819 z "},"+":{"ha":788,"x_min":69,"x_max":718,"o":"m 718 568 l 718 356 l 425 356 l 425 138 l 363 138 l 363 356 l 69 356 l 69 568 l 363 568 l 363 786 l 425 786 l 425 568 l 718 568 m 656 506 l 132 506 l 132 418 l 656 418 l 656 506 z "},",":{"ha":503,"x_min":-57,"x_max":421,"o":"m 421 213 l 204 -204 l -57 -204 l 160 213 l 421 213 m 165 -142 l 317 150 l 197 150 l 46 -142 l 165 -142 z "},"-":{"ha":813,"x_min":82,"x_max":731,"o":"m 731 356 l 82 356 l 82 568 l 731 568 l 731 356 m 668 506 l 144 506 l 144 418 l 668 418 l 668 506 z "},".":{"ha":431,"x_min":82,"x_max":349,"o":"m 349 0 l 82 0 l 82 213 l 349 213 l 349 0 m 286 150 l 144 150 l 144 63 l 286 63 l 286 150 z "},"/":{"ha":992,"x_min":38,"x_max":954,"o":"m 954 1051 l 299 -204 l 38 -204 l 693 1051 l 954 1051 m 260 -142 l 850 989 l 731 989 l 140 -142 l 260 -142 z "},":":{"ha":447,"x_min":90,"x_max":357,"o":"m 357 0 l 90 0 l 90 213 l 357 213 l 357 0 m 294 150 l 153 150 l 153 63 l 294 63 l 294 150 m 357 557 l 90 557 l 90 769 l 357 769 l 357 557 m 294 707 l 153 707 l 153 619 l 294 619 l 294 707 z "},";":{"ha":533,"x_min":-44,"x_max":433,"o":"m 421 557 l 154 557 l 154 769 l 421 769 l 421 557 m 358 707 l 217 707 l 217 619 l 358 619 l 358 707 m 433 213 l 217 -204 l -44 -204 l 172 213 l 433 213 m 178 -142 l 329 150 l 210 150 l 58 -142 l 178 -142 z "},"<":{"ha":901,"x_min":51,"x_max":792,"o":"m 792 782 l 378 572 l 792 363 l 792 104 l 51 478 l 792 851 l 792 782 m 308 538 l 192 479 l 729 207 l 729 325 l 308 538 z "},"=":{"ha":950,"x_min":90,"x_max":860,"o":"m 860 550 l 90 550 l 90 763 l 860 763 l 860 550 m 797 700 l 153 700 l 153 613 l 797 613 l 797 700 m 860 185 l 90 185 l 90 397 l 860 397 l 860 185 m 797 335 l 153 335 l 153 247 l 797 247 l 797 335 z "},">":{"ha":901,"x_min":110,"x_max":850,"o":"m 110 174 l 524 383 l 110 593 l 110 851 l 850 478 l 110 104 l 110 174 m 593 418 l 710 476 l 172 749 l 172 631 l 593 418 z "},"?":{"ha":1017,"x_min":61,"x_max":936,"o":"m 936 965 l 936 451 l 571 451 l 571 294 l 339 294 l 339 514 l 704 514 l 704 903 l 124 903 l 124 708 l 61 708 l 61 965 l 936 965 m 401 451 l 401 357 l 508 357 l 508 451 l 401 451 m 768 514 l 874 514 l 874 903 l 768 903 l 768 514 m 588 0 l 321 0 l 321 213 l 588 213 l 588 0 m 525 150 l 383 150 l 383 63 l 525 63 l 525 150 z "},"@":{"ha":1188,"x_min":96,"x_max":1096,"o":"m 865 436 l 496 436 l 496 214 l 264 214 l 264 750 l 928 750 l 928 276 l 1033 276 l 1033 856 l 158 856 l 158 108 l 1096 108 l 1096 46 l 96 46 l 96 918 l 1096 918 l 1096 214 l 865 214 l 865 436 m 432 688 l 326 688 l 326 276 l 432 276 l 432 688 m 865 499 l 865 688 l 496 688 l 496 499 l 865 499 z "},"A":{"ha":1476,"x_min":43,"x_max":1453,"o":"m 1453 63 l 1453 0 l 1115 0 l 1115 63 l 1253 63 l 1253 451 l 414 451 l 414 63 l 551 63 l 551 0 l 43 0 l 43 63 l 182 63 l 182 903 l 43 903 l 43 965 l 1315 965 l 1315 63 l 1453 63 m 350 903 l 244 903 l 244 63 l 350 63 l 350 903 m 1253 514 l 1253 903 l 414 903 l 414 514 l 1253 514 z "},"B":{"ha":1407,"x_min":44,"x_max":1317,"o":"m 1261 483 q 1317 369 1317 440 l 1317 0 l 44 0 l 44 63 l 182 63 l 182 903 l 44 903 l 44 965 l 1317 965 l 1317 597 q 1261 483 1317 526 m 351 903 l 244 903 l 244 63 l 351 63 l 351 903 m 1253 369 q 1229 428 1253 404 q 1172 451 1206 451 l 414 451 l 414 63 l 1253 63 l 1253 369 m 1253 903 l 414 903 l 414 515 l 1172 515 q 1229 539 1206 515 q 1253 597 1253 563 l 1253 903 z "},"C":{"ha":1321,"x_min":44,"x_max":1250,"o":"m 1188 708 l 1188 903 l 414 903 l 414 63 l 1188 63 l 1188 257 l 1250 257 l 1250 0 l 44 0 l 44 63 l 182 63 l 182 903 l 44 903 l 44 965 l 1250 965 l 1250 708 l 1188 708 m 351 903 l 246 903 l 246 63 l 351 63 l 351 903 z "},"D":{"ha":1400,"x_min":44,"x_max":1317,"o":"m 1117 965 q 1258 906 1199 965 q 1317 764 1317 847 l 1317 200 q 1258 59 1317 118 q 1117 0 1199 0 l 44 0 l 44 63 l 182 63 l 182 903 l 44 903 l 44 965 l 1117 965 m 351 903 l 246 903 l 246 63 l 351 63 l 351 903 m 1254 764 q 1213 862 1254 821 q 1117 903 1172 903 l 414 903 l 414 63 l 1117 63 q 1213 103 1172 63 q 1254 200 1254 144 l 1254 764 z "},"E":{"ha":1385,"x_min":44,"x_max":1317,"o":"m 1254 708 l 1254 903 l 414 903 l 414 514 l 1028 514 l 1028 651 l 1092 651 l 1092 314 l 1028 314 l 1028 451 l 414 451 l 414 63 l 1254 63 l 1254 257 l 1317 257 l 1317 0 l 44 0 l 44 63 l 182 63 l 182 903 l 44 903 l 44 965 l 1317 965 l 1317 708 l 1254 708 m 351 903 l 244 903 l 244 63 l 351 63 l 351 903 z "},"F":{"ha":1301,"x_min":44,"x_max":1281,"o":"m 1281 965 l 1281 708 l 1218 708 l 1218 903 l 414 903 l 414 514 l 992 514 l 992 651 l 1054 651 l 1054 314 l 992 314 l 992 451 l 414 451 l 414 63 l 551 63 l 551 0 l 44 0 l 44 63 l 182 63 l 182 903 l 44 903 l 44 965 l 1281 965 m 351 903 l 244 903 l 244 63 l 351 63 l 351 903 z "},"G":{"ha":1401,"x_min":43,"x_max":1315,"o":"m 1253 708 l 1253 903 l 414 903 l 414 63 l 1253 63 l 1253 451 l 721 451 l 721 514 l 1315 514 l 1315 0 l 43 0 l 43 63 l 182 63 l 182 903 l 43 903 l 43 965 l 1315 965 l 1315 708 l 1253 708 m 350 903 l 244 903 l 244 63 l 350 63 l 350 903 z "},"H":{"ha":1497,"x_min":43,"x_max":1453,"o":"m 1315 903 l 1315 63 l 1453 63 l 1453 0 l 1115 0 l 1115 63 l 1253 63 l 1253 451 l 413 451 l 413 63 l 551 63 l 551 0 l 43 0 l 43 63 l 182 63 l 182 903 l 43 903 l 43 965 l 551 965 l 551 903 l 413 903 l 413 514 l 1253 514 l 1253 903 l 1115 903 l 1115 965 l 1453 965 l 1453 903 l 1315 903 m 350 903 l 244 903 l 244 63 l 350 63 l 350 903 z "},"I":{"ha":785,"x_min":26,"x_max":758,"o":"m 508 903 l 508 63 l 758 63 l 758 0 l 26 0 l 26 63 l 276 63 l 276 903 l 26 903 l 26 965 l 758 965 l 758 903 l 508 903 m 446 903 l 339 903 l 339 63 l 446 63 l 446 903 z "},"J":{"ha":1235,"x_min":29,"x_max":1190,"o":"m 1053 903 l 1053 63 l 1190 63 l 1190 0 l 29 0 l 29 257 l 92 257 l 92 63 l 821 63 l 821 903 l 682 903 l 682 965 l 1190 965 l 1190 903 l 1053 903 m 989 903 l 883 903 l 883 63 l 989 63 l 989 903 z "},"K":{"ha":1390,"x_min":44,"x_max":1399,"o":"m 1244 63 l 1399 63 l 1399 0 l 1060 0 l 1060 63 l 1167 63 l 875 451 l 414 451 l 414 63 l 553 63 l 553 0 l 44 0 l 44 63 l 182 63 l 182 903 l 44 903 l 44 965 l 553 965 l 553 903 l 414 903 l 414 514 l 874 514 l 1115 903 l 1003 903 l 1003 965 l 1342 965 l 1342 903 l 1190 903 l 929 485 l 1244 63 m 351 63 l 351 903 l 244 903 l 244 63 l 351 63 z "},"L":{"ha":1275,"x_min":43,"x_max":1246,"o":"m 1246 257 l 1246 0 l 43 0 l 43 63 l 182 63 l 182 903 l 43 903 l 43 965 l 551 965 l 551 903 l 414 903 l 414 63 l 1183 63 l 1183 257 l 1246 257 m 350 903 l 244 903 l 244 63 l 350 63 l 350 903 z "},"M":{"ha":1779,"x_min":43,"x_max":1735,"o":"m 1597 903 l 1597 63 l 1735 63 l 1735 0 l 1228 0 l 1228 63 l 1365 63 l 1365 814 l 889 -32 l 414 814 l 414 63 l 551 63 l 551 0 l 43 0 l 43 63 l 182 63 l 182 903 l 43 903 l 43 965 l 400 965 l 889 96 l 1379 965 l 1735 965 l 1735 903 l 1597 903 m 350 63 l 350 903 l 244 903 l 244 63 l 350 63 m 1535 63 l 1535 903 l 1428 903 l 1428 63 l 1535 63 z "},"N":{"ha":1554,"x_min":44,"x_max":1510,"o":"m 1372 903 l 1372 63 l 1510 63 l 1510 0 l 1158 0 l 414 850 l 414 63 l 551 63 l 551 0 l 44 0 l 44 63 l 182 63 l 182 903 l 44 903 l 44 965 l 397 965 l 1140 115 l 1140 903 l 1003 903 l 1003 965 l 1510 965 l 1510 903 l 1372 903 m 351 63 l 351 903 l 244 903 l 244 63 l 351 63 m 1310 903 l 1203 903 l 1203 63 l 1310 63 l 1310 903 z "},"O":{"ha":1317,"x_min":92,"x_max":1225,"o":"m 1225 965 l 1225 0 l 92 0 l 92 965 l 1225 965 m 261 63 l 261 903 l 154 903 l 154 63 l 261 63 m 1163 903 l 324 903 l 324 63 l 1163 63 l 1163 903 z "},"P":{"ha":1328,"x_min":44,"x_max":1274,"o":"m 414 451 l 414 63 l 553 63 l 553 0 l 44 0 l 44 63 l 182 63 l 182 903 l 44 903 l 44 965 l 1274 965 l 1274 451 l 414 451 m 414 903 l 414 514 l 1211 514 l 1211 903 l 414 903 m 351 63 l 351 903 l 246 903 l 246 63 l 351 63 z "},"Q":{"ha":1317,"x_min":92,"x_max":1225,"o":"m 1225 0 l 988 0 l 1156 -111 l 1119 -164 l 874 0 l 92 0 l 92 965 l 1225 965 l 1225 0 m 260 63 l 260 903 l 154 903 l 154 63 l 260 63 m 1163 903 l 322 903 l 322 63 l 781 63 l 613 175 l 647 226 l 893 63 l 1163 63 l 1163 903 z "},"R":{"ha":1478,"x_min":44,"x_max":1454,"o":"m 1261 483 q 1317 369 1317 440 l 1317 63 l 1454 63 l 1454 0 l 1117 0 l 1117 63 l 1253 63 l 1253 369 q 1229 428 1253 404 q 1172 451 1206 451 l 414 451 l 414 63 l 553 63 l 553 0 l 44 0 l 44 63 l 182 63 l 182 903 l 44 903 l 44 965 l 1317 965 l 1317 597 q 1261 483 1317 526 m 351 903 l 246 903 l 246 63 l 351 63 l 351 903 m 1253 903 l 414 903 l 414 515 l 1172 515 q 1229 539 1206 515 q 1253 597 1253 563 l 1253 903 z "},"S":{"ha":1306,"x_min":86,"x_max":1219,"o":"m 1219 965 l 1219 708 l 1157 708 l 1157 903 l 318 903 l 318 514 l 1219 514 l 1219 0 l 86 0 l 86 257 l 149 257 l 149 63 l 988 63 l 988 451 l 86 451 l 86 965 l 1219 965 m 1050 451 l 1050 63 l 1157 63 l 1157 451 l 1050 451 m 254 903 l 149 903 l 149 514 l 254 514 l 254 903 z "},"T":{"ha":1349,"x_min":26,"x_max":1322,"o":"m 1322 965 l 1322 708 l 1260 708 l 1260 903 l 790 903 l 790 63 l 929 63 l 929 0 l 421 0 l 421 63 l 558 63 l 558 903 l 89 903 l 89 708 l 26 708 l 26 965 l 1322 965 m 728 903 l 621 903 l 621 63 l 728 63 l 728 903 z "},"U":{"ha":1476,"x_min":44,"x_max":1454,"o":"m 1454 903 l 1317 903 l 1317 0 l 44 0 l 44 63 l 182 63 l 182 903 l 44 903 l 44 965 l 551 965 l 551 903 l 414 903 l 414 63 l 1254 63 l 1254 903 l 1115 903 l 1115 965 l 1454 965 l 1454 903 m 351 903 l 244 903 l 244 63 l 351 63 l 351 903 z "},"V":{"ha":1444,"x_min":44,"x_max":1454,"o":"m 1115 965 l 1454 965 l 1454 903 l 1304 903 l 965 0 l 44 0 l 44 63 l 182 63 l 182 903 l 44 903 l 44 965 l 551 965 l 551 903 l 414 903 l 414 63 l 919 63 l 1235 903 l 1115 903 l 1115 965 m 351 903 l 244 903 l 244 63 l 351 63 l 351 903 z "},"W":{"ha":1893,"x_min":44,"x_max":1849,"o":"m 1711 903 l 1711 63 l 1849 63 l 1849 0 l 44 0 l 44 63 l 182 63 l 182 903 l 44 903 l 44 965 l 553 965 l 553 903 l 414 903 l 414 63 l 915 63 l 915 903 l 778 903 l 778 965 l 1115 965 l 1115 903 l 978 903 l 978 63 l 1479 63 l 1479 903 l 1342 903 l 1342 965 l 1849 965 l 1849 903 l 1711 903 m 351 903 l 246 903 l 246 63 l 351 63 l 351 903 m 1649 903 l 1542 903 l 1542 63 l 1649 63 l 1649 903 z "},"X":{"ha":1326,"x_min":10,"x_max":1317,"o":"m 1168 63 l 1317 63 l 1317 0 l 753 0 l 753 63 l 863 63 l 561 417 l 239 63 l 347 63 l 347 0 l 10 0 l 10 63 l 149 63 l 519 464 l 146 903 l 19 903 l 19 965 l 583 965 l 583 903 l 450 903 l 747 554 l 1060 903 l 964 903 l 964 965 l 1303 965 l 1303 903 l 1149 903 l 788 507 l 1168 63 m 1086 63 l 368 903 l 228 903 l 946 63 l 1086 63 z "},"Y":{"ha":1283,"x_min":-7,"x_max":1290,"o":"m 953 965 l 1290 965 l 1290 903 l 1136 903 l 758 471 l 758 63 l 896 63 l 896 0 l 389 0 l 389 63 l 526 63 l 526 471 l 149 903 l -7 903 l -7 965 l 332 965 l 332 903 l 232 903 l 572 514 l 713 514 l 1053 903 l 953 903 l 953 965 m 696 63 l 696 451 l 589 451 l 589 63 l 696 63 z "},"Z":{"ha":1251,"x_min":35,"x_max":1218,"o":"m 1199 257 l 1199 0 l 35 0 l 850 903 l 117 903 l 117 708 l 54 708 l 54 965 l 1218 965 l 404 63 l 1136 63 l 1136 257 l 1199 257 m 1078 903 l 933 903 l 176 63 l 319 63 l 1078 903 z "},"[":{"ha":608,"x_min":97,"x_max":579,"o":"m 329 1003 l 329 -75 l 579 -75 l 579 -137 l 97 -137 l 97 1065 l 579 1065 l 579 1003 l 329 1003 m 267 1003 l 160 1003 l 160 -75 l 267 -75 l 267 1003 z "},"\\":{"ha":992,"x_min":38,"x_max":954,"o":"m 299 1051 l 954 -204 l 693 -204 l 38 1051 l 299 1051 m 851 -142 l 261 989 l 142 989 l 732 -142 l 851 -142 z "},"]":{"ha":608,"x_min":29,"x_max":511,"o":"m 29 1003 l 29 1065 l 511 1065 l 511 -137 l 29 -137 l 29 -75 l 279 -75 l 279 1003 l 29 1003 m 342 -75 l 449 -75 l 449 1003 l 342 1003 l 342 -75 z "},"^":{"ha":701,"x_min":68,"x_max":644,"o":"m 644 442 l 575 442 l 450 686 l 326 442 l 68 442 l 356 1013 l 644 442 m 415 756 l 357 872 l 171 504 l 289 504 l 415 756 z "},"_":{"ha":1190,"x_min":100,"x_max":1090,"o":"m 1090 -135 l 100 -135 l 100 -72 l 1090 -72 l 1090 -135 z "},"`":{"ha":588,"x_min":92,"x_max":540,"o":"m 368 986 l 540 758 l 308 758 l 92 986 l 368 986 m 340 821 l 415 821 l 338 924 l 239 924 l 340 821 z "},"a":{"ha":1093,"x_min":76,"x_max":1081,"o":"m 943 63 l 1081 63 l 1081 0 l 76 0 l 76 357 l 711 357 l 711 589 l 139 589 l 139 482 l 76 482 l 76 651 l 943 651 l 943 63 m 711 63 l 711 294 l 139 294 l 139 63 l 711 63 m 881 589 l 774 589 l 774 63 l 881 63 l 881 589 z "},"b":{"ha":1053,"x_min":-54,"x_max":969,"o":"m 969 651 l 969 0 l 83 0 l 83 903 l -54 903 l -54 965 l 315 965 l 315 651 l 969 651 m 253 903 l 146 903 l 146 63 l 253 63 l 253 903 m 907 63 l 907 589 l 315 589 l 315 63 l 907 63 z "},"c":{"ha":1018,"x_min":83,"x_max":950,"o":"m 888 169 l 950 169 l 950 0 l 83 0 l 83 651 l 950 651 l 950 482 l 888 482 l 888 589 l 315 589 l 315 63 l 888 63 l 888 169 m 253 589 l 146 589 l 146 63 l 253 63 l 253 589 z "},"d":{"ha":1135,"x_min":83,"x_max":1107,"o":"m 738 651 l 738 903 l 600 903 l 600 965 l 969 965 l 969 63 l 1107 63 l 1107 0 l 83 0 l 83 651 l 738 651 m 800 63 l 907 63 l 907 903 l 800 903 l 800 63 m 146 63 l 738 63 l 738 589 l 146 589 l 146 63 z "},"e":{"ha":1026,"x_min":83,"x_max":950,"o":"m 83 651 l 950 651 l 950 294 l 315 294 l 315 63 l 888 63 l 888 169 l 950 169 l 950 0 l 83 0 l 83 651 m 315 589 l 315 357 l 888 357 l 888 589 l 315 589 m 146 63 l 253 63 l 253 589 l 146 589 l 146 63 z "},"f":{"ha":736,"x_min":49,"x_max":767,"o":"m 418 903 l 418 651 l 717 651 l 717 589 l 418 589 l 418 63 l 556 63 l 556 0 l 49 0 l 49 63 l 186 63 l 186 589 l 49 589 l 49 651 l 186 651 l 186 965 l 767 965 l 767 903 l 418 903 m 356 903 l 249 903 l 249 63 l 356 63 l 356 903 z "},"g":{"ha":1053,"x_min":83,"x_max":969,"o":"m 969 -314 l 83 -314 l 83 -144 l 146 -144 l 146 -251 l 738 -251 l 738 0 l 83 0 l 83 651 l 969 651 l 969 -314 m 738 589 l 146 589 l 146 63 l 738 63 l 738 589 m 907 589 l 800 589 l 800 -251 l 907 -251 l 907 589 z "},"h":{"ha":1203,"x_min":28,"x_max":1181,"o":"m 1181 63 l 1181 0 l 821 0 l 821 63 l 969 63 l 969 589 l 397 589 l 397 63 l 535 63 l 535 0 l 28 0 l 28 63 l 165 63 l 165 903 l 28 903 l 28 965 l 397 965 l 397 651 l 1032 651 l 1032 63 l 1181 63 m 335 903 l 228 903 l 228 63 l 335 63 l 335 903 z "},"i":{"ha":583,"x_min":49,"x_max":556,"o":"m 418 63 l 556 63 l 556 0 l 49 0 l 49 63 l 186 63 l 186 589 l 49 589 l 49 651 l 418 651 l 418 63 m 356 589 l 249 589 l 249 63 l 356 63 l 356 589 m 428 753 l 176 753 l 176 965 l 428 965 l 428 753 m 365 903 l 239 903 l 239 815 l 365 815 l 365 903 z "},"j":{"ha":479,"x_min":-286,"x_max":407,"o":"m 397 651 l 397 -314 l -286 -314 l -286 -144 l -224 -144 l -224 -251 l 165 -251 l 165 589 l 28 589 l 28 651 l 397 651 m 335 589 l 228 589 l 228 -251 l 335 -251 l 335 589 m 407 753 l 156 753 l 156 965 l 407 965 l 407 753 m 344 903 l 218 903 l 218 815 l 344 815 l 344 903 z "},"k":{"ha":1088,"x_min":28,"x_max":1051,"o":"m 1051 63 l 1051 0 l 713 0 l 713 63 l 819 63 l 654 294 l 397 294 l 397 63 l 536 63 l 536 0 l 28 0 l 28 63 l 165 63 l 165 903 l 28 903 l 28 965 l 397 965 l 397 357 l 653 357 l 807 589 l 694 589 l 694 651 l 1033 651 l 1033 589 l 882 589 l 708 328 l 897 63 l 1051 63 m 335 903 l 228 903 l 228 63 l 335 63 l 335 903 z "},"l":{"ha":563,"x_min":28,"x_max":535,"o":"m 397 63 l 535 63 l 535 0 l 28 0 l 28 63 l 165 63 l 165 903 l 28 903 l 28 965 l 397 965 l 397 63 m 335 903 l 228 903 l 228 63 l 335 63 l 335 903 z "},"m":{"ha":1661,"x_min":49,"x_max":1639,"o":"m 1639 63 l 1639 0 l 1279 0 l 1279 63 l 1428 63 l 1428 589 l 949 589 l 949 63 l 1097 63 l 1097 0 l 738 0 l 738 63 l 886 63 l 886 589 l 418 589 l 418 63 l 556 63 l 556 0 l 49 0 l 49 63 l 186 63 l 186 589 l 49 589 l 49 651 l 1490 651 l 1490 63 l 1639 63 m 356 589 l 249 589 l 249 63 l 356 63 l 356 589 z "},"n":{"ha":1224,"x_min":49,"x_max":1201,"o":"m 49 651 l 1053 651 l 1053 63 l 1201 63 l 1201 0 l 842 0 l 842 63 l 990 63 l 990 589 l 418 589 l 418 63 l 556 63 l 556 0 l 49 0 l 49 63 l 186 63 l 186 589 l 49 589 l 49 651 m 356 63 l 356 589 l 249 589 l 249 63 l 356 63 z "},"o":{"ha":1033,"x_min":83,"x_max":950,"o":"m 950 0 l 83 0 l 83 651 l 950 651 l 950 0 m 888 589 l 315 589 l 315 63 l 888 63 l 888 589 m 253 589 l 146 589 l 146 63 l 253 63 l 253 589 z "},"p":{"ha":1135,"x_min":28,"x_max":1051,"o":"m 28 -251 l 165 -251 l 165 589 l 28 589 l 28 651 l 1051 651 l 1051 0 l 397 0 l 397 -251 l 535 -251 l 535 -314 l 28 -314 l 28 -251 m 989 589 l 397 589 l 397 63 l 989 63 l 989 589 m 335 589 l 228 589 l 228 -251 l 335 -251 l 335 589 z "},"q":{"ha":1053,"x_min":83,"x_max":1107,"o":"m 1107 -314 l 600 -314 l 600 -251 l 738 -251 l 738 0 l 83 0 l 83 651 l 969 651 l 969 -251 l 1107 -251 l 1107 -314 m 146 63 l 738 63 l 738 589 l 146 589 l 146 63 m 800 -251 l 907 -251 l 907 589 l 800 589 l 800 -251 z "},"r":{"ha":965,"x_min":49,"x_max":932,"o":"m 49 651 l 932 651 l 932 483 l 869 483 l 869 589 l 418 589 l 418 63 l 556 63 l 556 0 l 49 0 l 49 63 l 186 63 l 186 589 l 49 589 l 49 651 m 356 63 l 356 589 l 249 589 l 249 63 l 356 63 z "},"s":{"ha":1019,"x_min":76,"x_max":943,"o":"m 943 651 l 943 482 l 881 482 l 881 589 l 308 589 l 308 357 l 943 357 l 943 0 l 76 0 l 76 169 l 139 169 l 139 63 l 711 63 l 711 294 l 76 294 l 76 651 l 943 651 m 774 294 l 774 63 l 881 63 l 881 294 l 774 294 m 246 589 l 139 589 l 139 357 l 246 357 l 246 589 z "},"t":{"ha":694,"x_min":28,"x_max":665,"o":"m 665 63 l 665 0 l 165 0 l 165 589 l 28 589 l 28 651 l 165 651 l 165 965 l 397 965 l 397 651 l 665 651 l 665 589 l 397 589 l 397 63 l 665 63 m 335 903 l 228 903 l 228 63 l 335 63 l 335 903 z "},"u":{"ha":1203,"x_min":28,"x_max":1181,"o":"m 1181 63 l 1181 0 l 165 0 l 165 589 l 28 589 l 28 651 l 397 651 l 397 63 l 969 63 l 969 589 l 821 589 l 821 651 l 1032 651 l 1032 63 l 1181 63 m 335 589 l 228 589 l 228 63 l 335 63 l 335 589 z "},"v":{"ha":1242,"x_min":49,"x_max":1232,"o":"m 893 651 l 1232 651 l 1232 589 l 1082 589 l 864 0 l 49 0 l 49 63 l 186 63 l 186 589 l 49 589 l 49 651 l 556 651 l 556 589 l 418 589 l 418 63 l 818 63 l 1013 589 l 893 589 l 893 651 m 356 589 l 249 589 l 249 63 l 356 63 l 356 589 z "},"w":{"ha":1725,"x_min":49,"x_max":1676,"o":"m 1539 589 l 1539 63 l 1676 63 l 1676 0 l 49 0 l 49 63 l 186 63 l 186 589 l 49 589 l 49 651 l 557 651 l 557 589 l 418 589 l 418 63 l 832 63 l 832 589 l 694 589 l 694 651 l 1032 651 l 1032 589 l 894 589 l 894 63 l 1307 63 l 1307 589 l 1169 589 l 1169 651 l 1676 651 l 1676 589 l 1539 589 m 356 589 l 250 589 l 250 63 l 356 63 l 356 589 m 1476 589 l 1369 589 l 1369 63 l 1476 63 l 1476 589 z "},"x":{"ha":1151,"x_min":35,"x_max":1115,"o":"m 1115 63 l 1115 0 l 553 0 l 553 63 l 678 63 l 463 299 l 233 63 l 374 63 l 374 0 l 35 0 l 35 63 l 147 63 l 421 344 l 197 589 l 56 589 l 56 651 l 619 651 l 619 589 l 493 589 l 696 368 l 910 589 l 758 589 l 758 651 l 1099 651 l 1099 589 l 997 589 l 738 322 l 975 63 l 1115 63 m 763 63 l 890 63 l 408 589 l 282 589 l 763 63 z "},"y":{"ha":1222,"x_min":22,"x_max":1194,"o":"m 1194 589 l 1057 589 l 1057 -314 l 171 -314 l 171 -144 l 233 -144 l 233 -251 l 825 -251 l 825 0 l 171 0 l 171 589 l 22 589 l 22 651 l 382 651 l 382 589 l 233 589 l 233 63 l 825 63 l 825 589 l 688 589 l 688 651 l 1194 651 l 1194 589 m 994 589 l 888 589 l 888 -251 l 994 -251 l 994 589 z "},"z":{"ha":974,"x_min":39,"x_max":935,"o":"m 853 169 l 915 169 l 915 0 l 39 0 l 567 589 l 124 589 l 124 482 l 61 482 l 61 651 l 935 651 l 408 63 l 853 63 l 853 169 m 324 63 l 792 589 l 649 589 l 181 63 l 324 63 z "},"{":{"ha":646,"x_min":28,"x_max":617,"o":"m 367 876 l 367 53 l 514 -65 l 617 -65 l 617 -128 l 490 -128 l 135 160 l 135 433 l 28 433 l 28 496 l 135 496 l 135 769 l 490 1057 l 617 1057 l 617 994 l 513 994 l 367 876 m 197 739 l 197 190 l 304 104 l 304 825 l 197 739 z "},"|":{"ha":432,"x_min":100,"x_max":332,"o":"m 332 -257 l 100 -257 l 100 1042 l 332 1042 l 332 -257 m 268 979 l 163 979 l 163 -194 l 268 -194 l 268 979 z "},"}":{"ha":646,"x_min":29,"x_max":618,"o":"m 133 994 l 29 994 l 29 1057 l 156 1057 l 511 769 l 511 496 l 618 496 l 618 433 l 511 433 l 511 160 l 156 -128 l 29 -128 l 29 -65 l 132 -65 l 279 53 l 279 876 l 133 994 m 342 825 l 342 104 l 449 190 l 449 739 l 342 825 z "},"~":{"ha":1089,"x_min":74,"x_max":1054,"o":"m 838 401 l 651 401 l 442 544 l 306 401 l 74 401 l 246 629 l 440 629 l 661 476 l 778 629 l 1054 629 l 838 401 m 907 567 l 808 567 l 731 464 l 806 464 l 907 567 m 375 567 l 276 567 l 199 464 l 274 464 l 375 567 z "},"¡":{"ha":438,"x_min":76,"x_max":364,"o":"m 325 382 l 115 382 l 76 -271 l 364 -271 l 325 382 m 297 -208 l 143 -208 l 175 319 l 265 319 l 297 -208 m 354 694 l 88 694 l 88 482 l 354 482 l 354 694 m 292 544 l 150 544 l 150 632 l 292 632 l 292 544 z "},"¢":{"ha":933,"x_min":72,"x_max":853,"o":"m 790 786 l 790 903 l 442 903 l 442 408 l 790 408 l 790 525 l 853 525 l 853 346 l 583 346 l 583 206 l 521 206 l 521 346 l 72 346 l 72 408 l 210 408 l 210 903 l 72 903 l 72 965 l 521 965 l 521 1106 l 583 1106 l 583 965 l 853 965 l 853 786 l 790 786 m 379 903 l 274 903 l 274 408 l 379 408 l 379 903 z "},"£":{"ha":1179,"x_min":69,"x_max":1115,"o":"m 1115 965 l 1115 708 l 1053 708 l 1053 903 l 440 903 l 440 411 l 704 411 l 704 349 l 440 349 l 440 63 l 1008 63 l 1008 0 l 69 0 l 69 63 l 208 63 l 208 349 l 69 349 l 69 411 l 208 411 l 208 965 l 1115 965 m 376 903 l 271 903 l 271 63 l 376 63 l 376 903 z "},"¤":{"ha":931,"x_min":79,"x_max":851,"o":"m 701 560 l 701 356 l 851 206 l 807 161 l 639 329 l 639 585 l 807 753 l 851 708 l 701 560 m 292 331 l 124 161 l 79 206 l 229 357 l 229 558 l 79 708 l 124 753 l 292 585 l 292 331 m 339 631 l 169 799 l 214 843 l 364 693 l 567 693 l 717 843 l 761 799 l 592 631 l 339 631 m 593 283 l 761 115 l 717 71 l 567 221 l 364 221 l 214 71 l 169 115 l 338 283 l 593 283 z "},"¥":{"ha":1392,"x_min":47,"x_max":1344,"o":"m 1344 965 l 1344 903 l 1190 903 l 910 582 l 1079 582 l 1079 519 l 856 519 l 813 471 l 813 396 l 1079 396 l 1079 333 l 813 333 l 813 63 l 950 63 l 950 0 l 443 0 l 443 63 l 581 63 l 581 333 l 314 333 l 314 396 l 581 396 l 581 471 l 539 519 l 314 519 l 314 582 l 483 582 l 203 903 l 47 903 l 47 965 l 386 965 l 386 903 l 286 903 l 626 514 l 767 514 l 1107 903 l 1007 903 l 1007 965 l 1344 965 m 750 451 l 643 451 l 643 63 l 750 63 l 750 451 z "},"¦":{"ha":263,"x_min":100,"x_max":163,"o":"m 163 1158 l 163 638 l 100 638 l 100 1158 l 163 1158 m 163 454 l 163 -67 l 100 -67 l 100 454 l 163 454 z "},"§":{"ha":1061,"x_min":88,"x_max":974,"o":"m 911 767 l 911 903 l 319 903 l 319 631 l 974 631 l 974 233 l 742 233 l 742 568 l 88 568 l 88 965 l 974 965 l 974 767 l 911 767 m 804 296 l 911 296 l 911 568 l 804 568 l 804 296 m 256 903 l 150 903 l 150 631 l 256 631 l 256 903 m 150 -28 l 150 -164 l 742 -164 l 742 108 l 88 108 l 88 506 l 319 506 l 319 171 l 974 171 l 974 -226 l 88 -226 l 88 -28 l 150 -28 m 257 443 l 150 443 l 150 171 l 257 171 l 257 443 m 806 -164 l 911 -164 l 911 108 l 806 108 l 806 -164 z "},"¨":{"ha":808,"x_min":132,"x_max":682,"o":"m 361 758 l 132 758 l 132 956 l 361 956 l 361 758 m 299 893 l 194 893 l 194 821 l 299 821 l 299 893 m 682 758 l 453 758 l 453 956 l 682 956 l 682 758 m 619 893 l 515 893 l 515 821 l 619 821 l 619 893 z "},"©":{"ha":1144,"x_min":96,"x_max":1049,"o":"m 1049 42 l 96 42 l 96 921 l 1049 921 l 1049 42 m 158 104 l 986 104 l 986 858 l 158 858 l 158 104 m 906 614 l 906 778 l 239 778 l 239 185 l 906 185 l 906 347 l 843 347 l 843 247 l 471 247 l 471 715 l 843 715 l 843 614 l 906 614 m 408 247 l 303 247 l 303 715 l 408 715 l 408 247 z "},"ª":{"ha":675,"x_min":92,"x_max":596,"o":"m 596 640 l 596 578 l 439 578 l 439 640 l 486 640 l 486 715 l 294 715 l 294 640 l 332 640 l 332 578 l 92 578 l 92 640 l 132 640 l 132 856 l 92 856 l 92 918 l 550 918 l 550 640 l 596 640 m 232 640 l 232 856 l 194 856 l 194 640 l 232 640 m 486 779 l 486 856 l 294 856 l 294 779 l 486 779 z "},"«":{"ha":1054,"x_min":49,"x_max":960,"o":"m 960 721 l 960 651 l 715 526 l 960 403 l 960 144 l 389 432 l 960 721 m 646 492 l 529 433 l 897 247 l 897 365 l 646 492 m 619 650 l 189 432 l 619 214 l 619 143 l 49 431 l 619 719 l 619 650 z "},"¬":{"ha":828,"x_min":75,"x_max":740,"o":"m 75 690 l 740 690 l 740 350 l 678 350 l 678 478 l 75 478 l 75 690 m 138 628 l 138 540 l 678 540 l 678 628 l 138 628 z "},"®":{"ha":1144,"x_min":96,"x_max":1049,"o":"m 1049 921 l 1049 42 l 96 42 l 96 921 l 1049 921 m 986 858 l 158 858 l 158 104 l 986 104 l 986 858 m 850 469 q 906 356 906 426 l 906 185 l 842 185 l 842 356 q 818 414 842 390 q 761 438 794 438 l 471 438 l 471 185 l 239 185 l 239 778 l 906 778 l 906 583 q 850 469 906 513 m 471 715 l 471 501 l 761 501 q 818 525 794 501 q 842 583 842 549 l 842 715 l 471 715 m 408 715 l 303 715 l 303 247 l 408 247 l 408 715 z "},"°":{"ha":476,"x_min":90,"x_max":386,"o":"m 386 638 l 90 638 l 90 922 l 386 922 l 386 638 m 324 860 l 153 860 l 153 700 l 324 700 l 324 860 z "},"±":{"ha":807,"x_min":79,"x_max":728,"o":"m 728 707 l 728 494 l 435 494 l 435 276 l 372 276 l 372 494 l 79 494 l 79 707 l 372 707 l 372 925 l 435 925 l 435 707 l 728 707 m 665 644 l 142 644 l 142 557 l 665 557 l 665 644 m 728 0 l 79 0 l 79 213 l 728 213 l 728 0 m 665 150 l 142 150 l 142 63 l 665 63 l 665 150 z "},"²":{"ha":779,"x_min":90,"x_max":688,"o":"m 271 674 l 271 507 l 625 507 l 625 590 l 688 590 l 688 444 l 90 444 l 90 736 l 506 736 l 506 903 l 153 903 l 153 819 l 90 819 l 90 965 l 688 965 l 688 674 l 271 674 m 568 736 l 625 736 l 625 903 l 568 903 l 568 736 m 208 674 l 153 674 l 153 507 l 208 507 l 208 674 z "},"³":{"ha":779,"x_min":90,"x_max":688,"o":"m 688 965 l 688 444 l 90 444 l 90 590 l 153 590 l 153 507 l 506 507 l 506 674 l 249 674 l 249 736 l 506 736 l 506 903 l 153 903 l 153 819 l 90 819 l 90 965 l 688 965 m 625 903 l 568 903 l 568 507 l 625 507 l 625 903 z "},"´":{"ha":626,"x_min":92,"x_max":540,"o":"m 540 986 l 324 758 l 92 758 l 264 986 l 540 986 m 393 924 l 294 924 l 217 821 l 292 821 l 393 924 z "},"µ":{"ha":1301,"x_min":-54,"x_max":1356,"o":"m 1017 965 l 1356 965 l 1356 903 l 1218 903 l 1218 0 l 315 0 l 315 -174 l 453 -174 l 453 -236 l -54 -236 l -54 -174 l 83 -174 l 83 903 l -54 903 l -54 965 l 453 965 l 453 903 l 315 903 l 315 63 l 1156 63 l 1156 903 l 1017 903 l 1017 965 m 253 -174 l 253 903 l 146 903 l 146 -174 l 253 -174 z "},"¶":{"ha":1014,"x_min":69,"x_max":956,"o":"m 818 903 l 818 -169 l 754 -169 l 754 903 l 649 903 l 649 -169 l 586 -169 l 586 451 l 69 451 l 69 965 l 956 965 l 956 903 l 818 903 z "},"·":{"ha":431,"x_min":82,"x_max":349,"o":"m 349 379 l 82 379 l 82 592 l 349 592 l 349 379 m 286 529 l 144 529 l 144 442 l 286 442 l 286 529 z "},"¸":{"ha":751,"x_min":133,"x_max":560,"o":"m 560 63 l 394 -254 l 133 -254 l 299 63 l 560 63 m 356 -192 l 456 0 l 338 0 l 236 -192 l 356 -192 z "},"¹":{"ha":607,"x_min":86,"x_max":547,"o":"m 547 507 l 547 444 l 86 444 l 86 507 l 242 507 l 242 903 l 86 903 l 86 965 l 424 965 l 424 507 l 547 507 m 361 507 l 361 903 l 304 903 l 304 507 l 361 507 z "},"º":{"ha":599,"x_min":90,"x_max":508,"o":"m 508 918 l 508 578 l 90 578 l 90 918 l 508 918 m 190 856 l 153 856 l 153 640 l 190 640 l 190 856 m 444 856 l 253 856 l 253 640 l 444 640 l 444 856 z "},"»":{"ha":1061,"x_min":96,"x_max":1007,"o":"m 96 143 l 96 213 l 340 338 l 96 461 l 96 719 l 667 432 l 96 143 m 410 372 l 526 431 l 158 617 l 158 499 l 410 372 m 436 144 l 436 214 l 867 432 l 436 650 l 436 721 l 1007 433 l 436 144 z "},"¼":{"ha":1757,"x_min":65,"x_max":1686,"o":"m 1504 521 l 1686 521 l 1686 0 l 1504 0 l 1504 229 l 1089 229 l 1089 521 l 1151 521 l 1151 292 l 1504 292 l 1504 521 m 1624 63 l 1624 458 l 1567 458 l 1567 63 l 1624 63 m 526 507 l 526 444 l 65 444 l 65 507 l 221 507 l 221 903 l 65 903 l 65 965 l 403 965 l 403 507 l 526 507 m 340 507 l 340 903 l 283 903 l 283 507 l 340 507 m 1338 1025 l 504 -61 l 268 -61 l 1101 1025 l 1338 1025 m 1210 963 l 1132 963 l 394 1 l 472 1 l 1210 963 z "},"½":{"ha":1756,"x_min":67,"x_max":1686,"o":"m 528 507 l 528 444 l 67 444 l 67 507 l 222 507 l 222 903 l 67 903 l 67 965 l 404 965 l 404 507 l 528 507 m 342 507 l 342 903 l 285 903 l 285 507 l 342 507 m 1339 1025 l 506 -61 l 269 -61 l 1103 1025 l 1339 1025 m 1211 963 l 1133 963 l 396 1 l 474 1 l 1211 963 m 1269 231 l 1269 64 l 1624 64 l 1624 147 l 1686 147 l 1686 1 l 1089 1 l 1089 293 l 1504 293 l 1504 460 l 1151 460 l 1151 376 l 1089 376 l 1089 522 l 1686 522 l 1686 231 l 1269 231 m 1567 293 l 1624 293 l 1624 460 l 1567 460 l 1567 293 m 1207 231 l 1151 231 l 1151 64 l 1207 64 l 1207 231 z "},"¾":{"ha":1919,"x_min":68,"x_max":1851,"o":"m 1851 521 l 1851 0 l 1669 0 l 1669 229 l 1254 229 l 1254 521 l 1317 521 l 1317 292 l 1669 292 l 1669 521 l 1851 521 m 1789 458 l 1732 458 l 1732 63 l 1789 63 l 1789 458 m 1511 1025 l 678 -61 l 442 -61 l 1275 1025 l 1511 1025 m 1383 963 l 1306 963 l 568 1 l 646 1 l 1383 963 m 665 965 l 665 444 l 68 444 l 68 590 l 131 590 l 131 507 l 483 507 l 483 674 l 226 674 l 226 736 l 483 736 l 483 903 l 131 903 l 131 819 l 68 819 l 68 965 l 665 965 m 603 903 l 546 903 l 546 507 l 603 507 l 603 903 z "},"¿":{"ha":1001,"x_min":72,"x_max":949,"o":"m 72 -271 l 72 243 l 438 243 l 438 400 l 669 400 l 669 181 l 304 181 l 304 -208 l 885 -208 l 885 -14 l 947 -14 l 947 -271 l 72 -271 m 607 243 l 607 338 l 500 338 l 500 243 l 607 243 m 240 181 l 135 181 l 135 -208 l 240 -208 l 240 181 m 421 694 l 688 694 l 688 482 l 421 482 l 421 694 m 483 544 l 625 544 l 625 632 l 483 632 l 483 544 z "},"À":{"ha":1476,"x_min":43,"x_max":1453,"o":"m 1453 63 l 1453 0 l 1115 0 l 1115 63 l 1253 63 l 1253 451 l 414 451 l 414 63 l 551 63 l 551 0 l 43 0 l 43 63 l 182 63 l 182 903 l 43 903 l 43 965 l 1315 965 l 1315 63 l 1453 63 m 350 903 l 244 903 l 244 63 l 350 63 l 350 903 m 1253 514 l 1253 903 l 414 903 l 414 514 l 1253 514 m 800 1264 l 972 1036 l 740 1036 l 524 1264 l 800 1264 m 772 1099 l 847 1099 l 769 1201 l 671 1201 l 772 1099 z "},"Á":{"ha":1476,"x_min":43,"x_max":1453,"o":"m 1453 63 l 1453 0 l 1115 0 l 1115 63 l 1253 63 l 1253 451 l 414 451 l 414 63 l 551 63 l 551 0 l 43 0 l 43 63 l 182 63 l 182 903 l 43 903 l 43 965 l 1315 965 l 1315 63 l 1453 63 m 350 903 l 244 903 l 244 63 l 350 63 l 350 903 m 1253 514 l 1253 903 l 414 903 l 414 514 l 1253 514 m 1042 1264 l 825 1036 l 593 1036 l 765 1264 l 1042 1264 m 894 1201 l 796 1201 l 718 1099 l 793 1099 l 894 1201 z "},"Â":{"ha":1476,"x_min":43,"x_max":1453,"o":"m 1453 63 l 1453 0 l 1115 0 l 1115 63 l 1253 63 l 1253 451 l 414 451 l 414 63 l 551 63 l 551 0 l 43 0 l 43 63 l 182 63 l 182 903 l 43 903 l 43 965 l 1315 965 l 1315 63 l 1453 63 m 350 903 l 244 903 l 244 63 l 350 63 l 350 903 m 1253 514 l 1253 903 l 414 903 l 414 514 l 1253 514 m 1013 1036 l 935 1036 l 842 1168 l 715 1036 l 483 1036 l 656 1264 l 850 1264 l 1013 1036 m 785 1201 l 686 1201 l 608 1099 l 683 1099 l 785 1201 z "},"Ã":{"ha":1476,"x_min":43,"x_max":1453,"o":"m 1453 63 l 1453 0 l 1115 0 l 1115 63 l 1253 63 l 1253 451 l 414 451 l 414 63 l 551 63 l 551 0 l 43 0 l 43 63 l 182 63 l 182 903 l 43 903 l 43 965 l 1315 965 l 1315 63 l 1453 63 m 350 903 l 244 903 l 244 63 l 350 63 l 350 903 m 1253 514 l 1253 903 l 414 903 l 414 514 l 1253 514 m 1004 1036 l 818 1036 l 725 1168 l 599 1036 l 367 1036 l 539 1264 l 733 1264 l 835 1121 l 944 1264 l 1221 1264 l 1004 1036 m 1074 1201 l 975 1201 l 897 1099 l 972 1099 l 1074 1201 m 668 1201 l 569 1201 l 492 1099 l 567 1099 l 668 1201 z "},"Ä":{"ha":1476,"x_min":43,"x_max":1453,"o":"m 1453 63 l 1453 0 l 1115 0 l 1115 63 l 1253 63 l 1253 451 l 414 451 l 414 63 l 551 63 l 551 0 l 43 0 l 43 63 l 182 63 l 182 903 l 43 903 l 43 965 l 1315 965 l 1315 63 l 1453 63 m 350 903 l 244 903 l 244 63 l 350 63 l 350 903 m 1253 514 l 1253 903 l 414 903 l 414 514 l 1253 514 m 703 1036 l 474 1036 l 474 1233 l 703 1233 l 703 1036 m 640 1171 l 536 1171 l 536 1099 l 640 1099 l 640 1171 m 1024 1036 l 794 1036 l 794 1233 l 1024 1233 l 1024 1036 m 961 1171 l 857 1171 l 857 1099 l 961 1099 l 961 1171 z "},"Å":{"ha":1476,"x_min":43,"x_max":1453,"o":"m 1453 63 l 1453 0 l 1115 0 l 1115 63 l 1253 63 l 1253 451 l 414 451 l 414 63 l 551 63 l 551 0 l 43 0 l 43 63 l 182 63 l 182 903 l 43 903 l 43 965 l 1315 965 l 1315 63 l 1453 63 m 350 903 l 244 903 l 244 63 l 350 63 l 350 903 m 1253 514 l 1253 903 l 414 903 l 414 514 l 1253 514 m 893 1036 l 597 1036 l 597 1281 l 893 1281 l 893 1036 m 831 1218 l 660 1218 l 660 1099 l 831 1099 l 831 1218 z "},"Æ":{"ha":2363,"x_min":-7,"x_max":2294,"o":"m 2232 708 l 2232 903 l 1392 903 l 1392 514 l 2006 514 l 2006 651 l 2069 651 l 2069 314 l 2006 314 l 2006 451 l 1392 451 l 1392 63 l 2232 63 l 2232 257 l 2294 257 l 2294 0 l 1022 0 l 1022 63 l 1160 63 l 1160 451 l 358 451 l 213 63 l 332 63 l 332 0 l -7 0 l -7 63 l 143 63 l 482 965 l 2294 965 l 2294 708 l 2232 708 m 1160 514 l 1160 903 l 528 903 l 382 514 l 1160 514 m 1329 903 l 1222 903 l 1222 63 l 1329 63 l 1329 903 z "},"Ç":{"ha":1321,"x_min":44,"x_max":1250,"o":"m 1188 708 l 1188 903 l 414 903 l 414 63 l 1188 63 l 1188 257 l 1250 257 l 1250 0 l 889 0 l 757 -254 l 496 -254 l 628 0 l 44 0 l 44 63 l 182 63 l 182 903 l 44 903 l 44 965 l 1250 965 l 1250 708 l 1188 708 m 351 903 l 246 903 l 246 63 l 351 63 l 351 903 m 718 -192 l 818 0 l 700 0 l 599 -192 l 718 -192 z "},"È":{"ha":1385,"x_min":44,"x_max":1317,"o":"m 1254 708 l 1254 903 l 414 903 l 414 514 l 1028 514 l 1028 651 l 1092 651 l 1092 314 l 1028 314 l 1028 451 l 414 451 l 414 63 l 1254 63 l 1254 257 l 1317 257 l 1317 0 l 44 0 l 44 63 l 182 63 l 182 903 l 44 903 l 44 965 l 1317 965 l 1317 708 l 1254 708 m 351 903 l 244 903 l 244 63 l 351 63 l 351 903 m 743 1264 l 915 1036 l 683 1036 l 467 1264 l 743 1264 m 715 1099 l 790 1099 l 713 1201 l 614 1201 l 715 1099 z "},"É":{"ha":1385,"x_min":44,"x_max":1317,"o":"m 1254 708 l 1254 903 l 414 903 l 414 514 l 1028 514 l 1028 651 l 1092 651 l 1092 314 l 1028 314 l 1028 451 l 414 451 l 414 63 l 1254 63 l 1254 257 l 1317 257 l 1317 0 l 44 0 l 44 63 l 182 63 l 182 903 l 44 903 l 44 965 l 1317 965 l 1317 708 l 1254 708 m 351 903 l 244 903 l 244 63 l 351 63 l 351 903 m 985 1264 l 768 1036 l 536 1036 l 708 1264 l 985 1264 m 838 1201 l 739 1201 l 661 1099 l 736 1099 l 838 1201 z "},"Ê":{"ha":1385,"x_min":44,"x_max":1317,"o":"m 1254 708 l 1254 903 l 414 903 l 414 514 l 1028 514 l 1028 651 l 1092 651 l 1092 314 l 1028 314 l 1028 451 l 414 451 l 414 63 l 1254 63 l 1254 257 l 1317 257 l 1317 0 l 44 0 l 44 63 l 182 63 l 182 903 l 44 903 l 44 965 l 1317 965 l 1317 708 l 1254 708 m 351 903 l 244 903 l 244 63 l 351 63 l 351 903 m 956 1036 l 878 1036 l 785 1168 l 658 1036 l 426 1036 l 599 1264 l 793 1264 l 956 1036 m 728 1201 l 629 1201 l 551 1099 l 626 1099 l 728 1201 z "},"Ë":{"ha":1385,"x_min":44,"x_max":1317,"o":"m 1254 708 l 1254 903 l 414 903 l 414 514 l 1028 514 l 1028 651 l 1092 651 l 1092 314 l 1028 314 l 1028 451 l 414 451 l 414 63 l 1254 63 l 1254 257 l 1317 257 l 1317 0 l 44 0 l 44 63 l 182 63 l 182 903 l 44 903 l 44 965 l 1317 965 l 1317 708 l 1254 708 m 351 903 l 244 903 l 244 63 l 351 63 l 351 903 m 681 1036 l 451 1036 l 451 1233 l 681 1233 l 681 1036 m 618 1171 l 514 1171 l 514 1099 l 618 1099 l 618 1171 m 1001 1036 l 772 1036 l 772 1233 l 1001 1233 l 1001 1036 m 939 1171 l 835 1171 l 835 1099 l 939 1099 l 939 1171 z "},"Ì":{"ha":785,"x_min":26,"x_max":758,"o":"m 508 903 l 508 63 l 758 63 l 758 0 l 26 0 l 26 63 l 276 63 l 276 903 l 26 903 l 26 965 l 758 965 l 758 903 l 508 903 m 446 903 l 339 903 l 339 63 l 446 63 l 446 903 m 401 1264 l 574 1036 l 342 1036 l 125 1264 l 401 1264 m 374 1099 l 449 1099 l 371 1201 l 272 1201 l 374 1099 z "},"Í":{"ha":785,"x_min":26,"x_max":758,"o":"m 508 903 l 508 63 l 758 63 l 758 0 l 26 0 l 26 63 l 276 63 l 276 903 l 26 903 l 26 965 l 758 965 l 758 903 l 508 903 m 446 903 l 339 903 l 339 63 l 446 63 l 446 903 m 660 1264 l 443 1036 l 211 1036 l 383 1264 l 660 1264 m 513 1201 l 414 1201 l 336 1099 l 411 1099 l 513 1201 z "},"Î":{"ha":785,"x_min":26,"x_max":758,"o":"m 508 903 l 508 63 l 758 63 l 758 0 l 26 0 l 26 63 l 276 63 l 276 903 l 26 903 l 26 965 l 758 965 l 758 903 l 508 903 m 446 903 l 339 903 l 339 63 l 446 63 l 446 903 m 644 1036 l 567 1036 l 474 1168 l 347 1036 l 115 1036 l 288 1264 l 482 1264 l 644 1036 m 417 1201 l 318 1201 l 240 1099 l 315 1099 l 417 1201 z "},"Ï":{"ha":785,"x_min":26,"x_max":758,"o":"m 508 903 l 508 63 l 758 63 l 758 0 l 26 0 l 26 63 l 276 63 l 276 903 l 26 903 l 26 965 l 758 965 l 758 903 l 508 903 m 446 903 l 339 903 l 339 63 l 446 63 l 446 903 m 347 1036 l 118 1036 l 118 1233 l 347 1233 l 347 1036 m 285 1171 l 181 1171 l 181 1099 l 285 1099 l 285 1171 m 668 1036 l 439 1036 l 439 1233 l 668 1233 l 668 1036 m 606 1171 l 501 1171 l 501 1099 l 606 1099 l 606 1171 z "},"Ð":{"ha":1401,"x_min":46,"x_max":1318,"o":"m 1118 965 q 1259 906 1200 965 q 1318 764 1318 847 l 1318 200 q 1259 59 1318 118 q 1118 0 1200 0 l 46 0 l 46 63 l 183 63 l 183 451 l 46 451 l 46 514 l 183 514 l 183 903 l 46 903 l 46 965 l 1118 965 m 353 903 l 247 903 l 247 63 l 353 63 l 353 903 m 1256 764 q 1215 862 1256 821 q 1118 903 1174 903 l 415 903 l 415 514 l 724 514 l 724 451 l 415 451 l 415 63 l 1118 63 q 1215 103 1174 63 q 1256 200 1256 144 l 1256 764 z "},"Ñ":{"ha":1554,"x_min":44,"x_max":1510,"o":"m 1372 903 l 1372 63 l 1510 63 l 1510 0 l 1158 0 l 414 850 l 414 63 l 551 63 l 551 0 l 44 0 l 44 63 l 182 63 l 182 903 l 44 903 l 44 965 l 397 965 l 1140 115 l 1140 903 l 1003 903 l 1003 965 l 1510 965 l 1510 903 l 1372 903 m 351 63 l 351 903 l 244 903 l 244 63 l 351 63 m 1310 903 l 1203 903 l 1203 63 l 1310 63 l 1310 903 m 1001 1036 l 815 1036 l 722 1168 l 596 1036 l 364 1036 l 536 1264 l 731 1264 l 832 1121 l 942 1264 l 1218 1264 l 1001 1036 m 1071 1201 l 972 1201 l 894 1099 l 969 1099 l 1071 1201 m 665 1201 l 567 1201 l 489 1099 l 564 1099 l 665 1201 z "},"Ò":{"ha":1314,"x_min":92,"x_max":1225,"o":"m 1225 965 l 1225 0 l 92 0 l 92 965 l 1225 965 m 261 63 l 261 903 l 154 903 l 154 63 l 261 63 m 1163 903 l 324 903 l 324 63 l 1163 63 l 1163 903 m 707 1264 l 879 1036 l 647 1036 l 431 1264 l 707 1264 m 679 1099 l 754 1099 l 676 1201 l 578 1201 l 679 1099 z "},"Ó":{"ha":1314,"x_min":92,"x_max":1225,"o":"m 1225 965 l 1225 0 l 92 0 l 92 965 l 1225 965 m 261 63 l 261 903 l 154 903 l 154 63 l 261 63 m 1163 903 l 324 903 l 324 63 l 1163 63 l 1163 903 m 940 1264 l 724 1036 l 492 1036 l 664 1264 l 940 1264 m 793 1201 l 694 1201 l 617 1099 l 692 1099 l 793 1201 z "},"Ô":{"ha":1314,"x_min":92,"x_max":1225,"o":"m 1225 965 l 1225 0 l 92 0 l 92 965 l 1225 965 m 261 63 l 261 903 l 154 903 l 154 63 l 261 63 m 1163 903 l 324 903 l 324 63 l 1163 63 l 1163 903 m 943 1036 l 865 1036 l 772 1168 l 646 1036 l 414 1036 l 586 1264 l 781 1264 l 943 1036 m 715 1201 l 617 1201 l 539 1099 l 614 1099 l 715 1201 z "},"Õ":{"ha":1314,"x_min":92,"x_max":1225,"o":"m 1225 965 l 1225 0 l 92 0 l 92 965 l 1225 965 m 261 63 l 261 903 l 154 903 l 154 63 l 261 63 m 1163 903 l 324 903 l 324 63 l 1163 63 l 1163 903 m 924 1036 l 738 1036 l 644 1168 l 518 1036 l 286 1036 l 458 1264 l 653 1264 l 754 1121 l 864 1264 l 1140 1264 l 924 1036 m 993 1201 l 894 1201 l 817 1099 l 892 1099 l 993 1201 m 588 1201 l 489 1201 l 411 1099 l 486 1099 l 588 1201 z "},"Ö":{"ha":1314,"x_min":92,"x_max":1225,"o":"m 1225 965 l 1225 0 l 92 0 l 92 965 l 1225 965 m 261 63 l 261 903 l 154 903 l 154 63 l 261 63 m 1163 903 l 324 903 l 324 63 l 1163 63 l 1163 903 m 632 1036 l 403 1036 l 403 1233 l 632 1233 l 632 1036 m 569 1171 l 465 1171 l 465 1099 l 569 1099 l 569 1171 m 953 1036 l 724 1036 l 724 1233 l 953 1233 l 953 1036 m 890 1171 l 786 1171 l 786 1099 l 890 1099 l 890 1171 z "},"×":{"ha":1125,"x_min":67,"x_max":1058,"o":"m 1058 174 l 711 174 l 493 368 l 240 174 l 136 174 l 446 411 l 67 749 l 414 749 l 632 556 l 886 749 l 990 749 l 681 513 l 1058 174 m 896 236 l 392 686 l 232 686 l 736 236 l 896 236 z "},"Ø":{"ha":1356,"x_min":86,"x_max":1347,"o":"m 1225 0 l 311 0 l 131 -179 l 86 -135 l 222 0 l 92 0 l 92 965 l 1192 965 l 1304 1076 l 1347 1032 l 1225 910 l 1225 0 m 154 63 l 261 63 l 261 903 l 154 903 l 154 63 m 324 101 l 1129 903 l 324 903 l 324 101 m 1163 63 l 1163 849 l 374 63 l 1163 63 z "},"Ù":{"ha":1476,"x_min":44,"x_max":1454,"o":"m 1454 903 l 1317 903 l 1317 0 l 44 0 l 44 63 l 182 63 l 182 903 l 44 903 l 44 965 l 551 965 l 551 903 l 414 903 l 414 63 l 1254 63 l 1254 903 l 1115 903 l 1115 965 l 1454 965 l 1454 903 m 351 903 l 244 903 l 244 63 l 351 63 l 351 903 m 801 1264 l 974 1036 l 742 1036 l 525 1264 l 801 1264 m 774 1099 l 849 1099 l 771 1201 l 672 1201 l 774 1099 z "},"Ú":{"ha":1476,"x_min":44,"x_max":1454,"o":"m 1454 903 l 1317 903 l 1317 0 l 44 0 l 44 63 l 182 63 l 182 903 l 44 903 l 44 965 l 551 965 l 551 903 l 414 903 l 414 63 l 1254 63 l 1254 903 l 1115 903 l 1115 965 l 1454 965 l 1454 903 m 351 903 l 244 903 l 244 63 l 351 63 l 351 903 m 1049 1264 l 832 1036 l 600 1036 l 772 1264 l 1049 1264 m 901 1201 l 803 1201 l 725 1099 l 800 1099 l 901 1201 z "},"Û":{"ha":1476,"x_min":44,"x_max":1454,"o":"m 1454 903 l 1317 903 l 1317 0 l 44 0 l 44 63 l 182 63 l 182 903 l 44 903 l 44 965 l 551 965 l 551 903 l 414 903 l 414 63 l 1254 63 l 1254 903 l 1115 903 l 1115 965 l 1454 965 l 1454 903 m 351 903 l 244 903 l 244 63 l 351 63 l 351 903 m 1033 1036 l 956 1036 l 863 1168 l 736 1036 l 504 1036 l 676 1264 l 871 1264 l 1033 1036 m 806 1201 l 707 1201 l 629 1099 l 704 1099 l 806 1201 z "},"Ü":{"ha":1476,"x_min":44,"x_max":1454,"o":"m 1454 903 l 1317 903 l 1317 0 l 44 0 l 44 63 l 182 63 l 182 903 l 44 903 l 44 965 l 551 965 l 551 903 l 414 903 l 414 63 l 1254 63 l 1254 903 l 1115 903 l 1115 965 l 1454 965 l 1454 903 m 351 903 l 244 903 l 244 63 l 351 63 l 351 903 m 721 1036 l 492 1036 l 492 1233 l 721 1233 l 721 1036 m 658 1171 l 554 1171 l 554 1099 l 658 1099 l 658 1171 m 1042 1036 l 813 1036 l 813 1233 l 1042 1233 l 1042 1036 m 979 1171 l 875 1171 l 875 1099 l 979 1099 l 979 1171 z "},"Ý":{"ha":1283,"x_min":-7,"x_max":1290,"o":"m 953 965 l 1290 965 l 1290 903 l 1136 903 l 758 471 l 758 63 l 896 63 l 896 0 l 389 0 l 389 63 l 526 63 l 526 471 l 149 903 l -7 903 l -7 965 l 332 965 l 332 903 l 232 903 l 572 514 l 713 514 l 1053 903 l 953 903 l 953 965 m 696 63 l 696 451 l 589 451 l 589 63 l 696 63 m 928 1264 l 711 1036 l 479 1036 l 651 1264 l 928 1264 m 781 1201 l 682 1201 l 604 1099 l 679 1099 l 781 1201 z "},"Þ":{"ha":1338,"x_min":44,"x_max":1274,"o":"m 414 244 l 414 63 l 553 63 l 553 0 l 44 0 l 44 63 l 182 63 l 182 903 l 44 903 l 44 965 l 551 965 l 551 903 l 414 903 l 414 758 l 1274 758 l 1274 244 l 414 244 m 351 903 l 246 903 l 246 63 l 351 63 l 351 903 m 414 307 l 1211 307 l 1211 696 l 414 696 l 414 307 z "},"ß":{"ha":1408,"x_min":46,"x_max":1318,"o":"m 1263 483 q 1318 369 1318 440 l 1318 0 l 597 0 l 597 63 l 1254 63 l 1254 369 q 1231 428 1254 404 q 1174 451 1207 451 l 597 451 l 597 515 l 1174 515 q 1231 539 1207 515 q 1254 597 1254 563 l 1254 903 l 415 903 l 415 -112 l 46 -112 l 46 -50 l 183 -50 l 183 903 l 46 903 l 46 965 l 1318 965 l 1318 597 q 1263 483 1318 526 m 353 903 l 247 903 l 247 -50 l 353 -50 l 353 903 z "},"à":{"ha":1093,"x_min":76,"x_max":1081,"o":"m 943 63 l 1081 63 l 1081 0 l 76 0 l 76 357 l 711 357 l 711 589 l 139 589 l 139 482 l 76 482 l 76 651 l 943 651 l 943 63 m 711 63 l 711 294 l 139 294 l 139 63 l 711 63 m 881 589 l 774 589 l 774 63 l 881 63 l 881 589 m 539 986 l 711 758 l 479 758 l 263 986 l 539 986 m 511 821 l 586 821 l 508 924 l 410 924 l 511 821 z "},"á":{"ha":1093,"x_min":76,"x_max":1081,"o":"m 943 63 l 1081 63 l 1081 0 l 76 0 l 76 357 l 711 357 l 711 589 l 139 589 l 139 482 l 76 482 l 76 651 l 943 651 l 943 63 m 711 63 l 711 294 l 139 294 l 139 63 l 711 63 m 881 589 l 774 589 l 774 63 l 881 63 l 881 589 m 753 986 l 536 758 l 304 758 l 476 986 l 753 986 m 606 924 l 507 924 l 429 821 l 504 821 l 606 924 z "},"â":{"ha":1093,"x_min":76,"x_max":1081,"o":"m 943 63 l 1081 63 l 1081 0 l 76 0 l 76 357 l 711 357 l 711 589 l 139 589 l 139 482 l 76 482 l 76 651 l 943 651 l 943 63 m 711 63 l 711 294 l 139 294 l 139 63 l 711 63 m 881 589 l 774 589 l 774 63 l 881 63 l 881 589 m 788 758 l 710 758 l 617 890 l 490 758 l 258 758 l 431 986 l 625 986 l 788 758 m 560 924 l 461 924 l 383 821 l 458 821 l 560 924 z "},"ã":{"ha":1093,"x_min":76,"x_max":1081,"o":"m 943 63 l 1081 63 l 1081 0 l 76 0 l 76 357 l 711 357 l 711 589 l 139 589 l 139 482 l 76 482 l 76 651 l 943 651 l 943 63 m 711 63 l 711 294 l 139 294 l 139 63 l 711 63 m 881 589 l 774 589 l 774 63 l 881 63 l 881 589 m 768 758 l 582 758 l 489 890 l 363 758 l 131 758 l 303 986 l 497 986 l 599 843 l 708 986 l 985 986 l 768 758 m 838 924 l 739 924 l 661 821 l 736 821 l 838 924 m 432 924 l 333 924 l 256 821 l 331 821 l 432 924 z "},"ä":{"ha":1093,"x_min":76,"x_max":1081,"o":"m 943 63 l 1081 63 l 1081 0 l 76 0 l 76 357 l 711 357 l 711 589 l 139 589 l 139 482 l 76 482 l 76 651 l 943 651 l 943 63 m 711 63 l 711 294 l 139 294 l 139 63 l 711 63 m 881 589 l 774 589 l 774 63 l 881 63 l 881 589 m 472 758 l 243 758 l 243 956 l 472 956 l 472 758 m 410 893 l 306 893 l 306 821 l 410 821 l 410 893 m 793 758 l 564 758 l 564 956 l 793 956 l 793 758 m 731 893 l 626 893 l 626 821 l 731 821 l 731 893 z "},"å":{"ha":1093,"x_min":76,"x_max":1081,"o":"m 943 63 l 1081 63 l 1081 0 l 76 0 l 76 357 l 711 357 l 711 589 l 139 589 l 139 482 l 76 482 l 76 651 l 943 651 l 943 63 m 711 63 l 711 294 l 139 294 l 139 63 l 711 63 m 881 589 l 774 589 l 774 63 l 881 63 l 881 589 m 647 758 l 351 758 l 351 1003 l 647 1003 l 647 758 m 585 940 l 414 940 l 414 821 l 585 821 l 585 940 z "},"æ":{"ha":1654,"x_min":76,"x_max":1578,"o":"m 76 357 l 711 357 l 711 589 l 139 589 l 139 482 l 76 482 l 76 651 l 1578 651 l 1578 294 l 943 294 l 943 63 l 1515 63 l 1515 169 l 1578 169 l 1578 0 l 76 0 l 76 357 m 943 589 l 943 357 l 1515 357 l 1515 589 l 943 589 m 711 63 l 711 294 l 139 294 l 139 63 l 711 63 m 881 589 l 774 589 l 774 63 l 881 63 l 881 589 z "},"ç":{"ha":1018,"x_min":83,"x_max":950,"o":"m 888 169 l 950 169 l 950 0 l 700 0 l 568 -254 l 307 -254 l 439 0 l 83 0 l 83 651 l 950 651 l 950 482 l 888 482 l 888 589 l 315 589 l 315 63 l 888 63 l 888 169 m 253 589 l 146 589 l 146 63 l 253 63 l 253 589 m 529 -192 l 629 0 l 511 0 l 410 -192 l 529 -192 z "},"è":{"ha":1025,"x_min":83,"x_max":950,"o":"m 83 651 l 950 651 l 950 294 l 315 294 l 315 63 l 888 63 l 888 169 l 950 169 l 950 0 l 83 0 l 83 651 m 315 589 l 315 357 l 888 357 l 888 589 l 315 589 m 146 63 l 253 63 l 253 589 l 146 589 l 146 63 m 547 986 l 719 758 l 488 758 l 271 986 l 547 986 m 519 821 l 594 821 l 517 924 l 418 924 l 519 821 z "},"é":{"ha":1025,"x_min":83,"x_max":950,"o":"m 83 651 l 950 651 l 950 294 l 315 294 l 315 63 l 888 63 l 888 169 l 950 169 l 950 0 l 83 0 l 83 651 m 315 589 l 315 357 l 888 357 l 888 589 l 315 589 m 146 63 l 253 63 l 253 589 l 146 589 l 146 63 m 776 986 l 560 758 l 328 758 l 500 986 l 776 986 m 629 924 l 531 924 l 453 821 l 528 821 l 629 924 z "},"ê":{"ha":1025,"x_min":83,"x_max":950,"o":"m 83 651 l 950 651 l 950 294 l 315 294 l 315 63 l 888 63 l 888 169 l 950 169 l 950 0 l 83 0 l 83 651 m 315 589 l 315 357 l 888 357 l 888 589 l 315 589 m 146 63 l 253 63 l 253 589 l 146 589 l 146 63 m 779 758 l 701 758 l 608 890 l 482 758 l 250 758 l 422 986 l 617 986 l 779 758 m 551 924 l 453 924 l 375 821 l 450 821 l 551 924 z "},"ë":{"ha":1025,"x_min":83,"x_max":950,"o":"m 83 651 l 950 651 l 950 294 l 315 294 l 315 63 l 888 63 l 888 169 l 950 169 l 950 0 l 83 0 l 83 651 m 315 589 l 315 357 l 888 357 l 888 589 l 315 589 m 146 63 l 253 63 l 253 589 l 146 589 l 146 63 m 476 758 l 247 758 l 247 956 l 476 956 l 476 758 m 414 893 l 310 893 l 310 821 l 414 821 l 414 893 m 797 758 l 568 758 l 568 956 l 797 956 l 797 758 m 735 893 l 631 893 l 631 821 l 735 821 l 735 893 z "},"ì":{"ha":583,"x_min":22,"x_max":556,"o":"m 418 63 l 556 63 l 556 0 l 49 0 l 49 63 l 186 63 l 186 589 l 49 589 l 49 651 l 418 651 l 418 63 m 356 589 l 249 589 l 249 63 l 356 63 l 356 589 m 299 986 l 471 758 l 239 758 l 22 986 l 299 986 m 271 821 l 346 821 l 268 924 l 169 924 l 271 821 z "},"í":{"ha":583,"x_min":49,"x_max":564,"o":"m 418 63 l 556 63 l 556 0 l 49 0 l 49 63 l 186 63 l 186 589 l 49 589 l 49 651 l 418 651 l 418 63 m 356 589 l 249 589 l 249 63 l 356 63 l 356 589 m 564 986 l 347 758 l 115 758 l 288 986 l 564 986 m 417 924 l 318 924 l 240 821 l 315 821 l 417 924 z "},"î":{"ha":583,"x_min":8,"x_max":556,"o":"m 418 63 l 556 63 l 556 0 l 49 0 l 49 63 l 186 63 l 186 589 l 49 589 l 49 651 l 418 651 l 418 63 m 356 589 l 249 589 l 249 63 l 356 63 l 356 589 m 538 758 l 460 758 l 367 890 l 240 758 l 8 758 l 181 986 l 375 986 l 538 758 m 310 924 l 211 924 l 133 821 l 208 821 l 310 924 z "},"ï":{"ha":583,"x_min":24,"x_max":574,"o":"m 418 63 l 556 63 l 556 0 l 49 0 l 49 63 l 186 63 l 186 589 l 49 589 l 49 651 l 418 651 l 418 63 m 356 589 l 249 589 l 249 63 l 356 63 l 356 589 m 253 758 l 24 758 l 24 956 l 253 956 l 253 758 m 190 893 l 86 893 l 86 821 l 190 821 l 190 893 m 574 758 l 344 758 l 344 956 l 574 956 l 574 758 m 511 893 l 407 893 l 407 821 l 511 821 l 511 893 z "},"ð":{"ha":1033,"x_min":83,"x_max":950,"o":"m 950 651 l 950 0 l 83 0 l 83 651 l 851 651 l 510 876 l 426 776 l 390 807 l 469 903 l 319 1003 l 360 1051 l 508 950 l 613 1075 l 650 1044 l 549 924 l 950 651 m 253 589 l 146 589 l 146 63 l 253 63 l 253 589 m 888 589 l 315 589 l 315 63 l 888 63 l 888 589 z "},"ñ":{"ha":1224,"x_min":49,"x_max":1201,"o":"m 49 651 l 1053 651 l 1053 63 l 1201 63 l 1201 0 l 842 0 l 842 63 l 990 63 l 990 589 l 418 589 l 418 63 l 556 63 l 556 0 l 49 0 l 49 63 l 186 63 l 186 589 l 49 589 l 49 651 m 356 63 l 356 589 l 249 589 l 249 63 l 356 63 m 844 758 l 658 758 l 565 890 l 439 758 l 207 758 l 379 986 l 574 986 l 675 843 l 785 986 l 1061 986 l 844 758 m 914 924 l 815 924 l 738 821 l 813 821 l 914 924 m 508 924 l 410 924 l 332 821 l 407 821 l 508 924 z "},"ò":{"ha":1031,"x_min":83,"x_max":950,"o":"m 950 0 l 83 0 l 83 651 l 950 651 l 950 0 m 888 589 l 315 589 l 315 63 l 888 63 l 888 589 m 253 589 l 146 589 l 146 63 l 253 63 l 253 589 m 557 986 l 729 758 l 497 758 l 281 986 l 557 986 m 529 821 l 604 821 l 526 924 l 428 924 l 529 821 z "},"ó":{"ha":1031,"x_min":83,"x_max":950,"o":"m 950 0 l 83 0 l 83 651 l 950 651 l 950 0 m 888 589 l 315 589 l 315 63 l 888 63 l 888 589 m 253 589 l 146 589 l 146 63 l 253 63 l 253 589 m 789 986 l 572 758 l 340 758 l 513 986 l 789 986 m 642 924 l 543 924 l 465 821 l 540 821 l 642 924 z "},"ô":{"ha":1031,"x_min":83,"x_max":950,"o":"m 950 0 l 83 0 l 83 651 l 950 651 l 950 0 m 888 589 l 315 589 l 315 63 l 888 63 l 888 589 m 253 589 l 146 589 l 146 63 l 253 63 l 253 589 m 774 758 l 696 758 l 603 890 l 476 758 l 244 758 l 417 986 l 611 986 l 774 758 m 546 924 l 447 924 l 369 821 l 444 821 l 546 924 z "},"õ":{"ha":1031,"x_min":83,"x_max":994,"o":"m 950 0 l 83 0 l 83 651 l 950 651 l 950 0 m 888 589 l 315 589 l 315 63 l 888 63 l 888 589 m 253 589 l 146 589 l 146 63 l 253 63 l 253 589 m 778 758 l 592 758 l 499 890 l 372 758 l 140 758 l 313 986 l 507 986 l 608 843 l 718 986 l 994 986 l 778 758 m 847 924 l 749 924 l 671 821 l 746 821 l 847 924 m 442 924 l 343 924 l 265 821 l 340 821 l 442 924 z "},"ö":{"ha":1031,"x_min":83,"x_max":950,"o":"m 950 0 l 83 0 l 83 651 l 950 651 l 950 0 m 888 589 l 315 589 l 315 63 l 888 63 l 888 589 m 253 589 l 146 589 l 146 63 l 253 63 l 253 589 m 479 758 l 250 758 l 250 956 l 479 956 l 479 758 m 417 893 l 313 893 l 313 821 l 417 821 l 417 893 m 800 758 l 571 758 l 571 956 l 800 956 l 800 758 m 738 893 l 633 893 l 633 821 l 738 821 l 738 893 z "},"÷":{"ha":893,"x_min":71,"x_max":822,"o":"m 822 568 l 822 356 l 71 356 l 71 568 l 822 568 m 760 506 l 133 506 l 133 418 l 760 418 l 760 506 m 313 303 l 579 303 l 579 90 l 313 90 l 313 303 m 375 153 l 517 153 l 517 240 l 375 240 l 375 153 m 579 622 l 313 622 l 313 835 l 579 835 l 579 622 m 517 772 l 375 772 l 375 685 l 517 685 l 517 772 z "},"ø":{"ha":1033,"x_min":83,"x_max":1056,"o":"m 1056 701 l 950 604 l 950 0 l 293 0 l 133 -147 l 92 -101 l 201 0 l 83 0 l 83 651 l 910 651 l 1015 747 l 1056 701 m 253 63 l 253 589 l 146 589 l 146 63 l 253 63 m 315 106 l 842 589 l 315 589 l 315 106 m 888 546 l 361 63 l 888 63 l 888 546 z "},"ù":{"ha":1203,"x_min":28,"x_max":1181,"o":"m 1181 63 l 1181 0 l 165 0 l 165 589 l 28 589 l 28 651 l 397 651 l 397 63 l 969 63 l 969 589 l 821 589 l 821 651 l 1032 651 l 1032 63 l 1181 63 m 335 589 l 228 589 l 228 63 l 335 63 l 335 589 m 610 986 l 782 758 l 550 758 l 333 986 l 610 986 m 582 821 l 657 821 l 579 924 l 481 924 l 582 821 z "},"ú":{"ha":1203,"x_min":28,"x_max":1181,"o":"m 1181 63 l 1181 0 l 165 0 l 165 589 l 28 589 l 28 651 l 397 651 l 397 63 l 969 63 l 969 589 l 821 589 l 821 651 l 1032 651 l 1032 63 l 1181 63 m 335 589 l 228 589 l 228 63 l 335 63 l 335 589 m 882 986 l 665 758 l 433 758 l 606 986 l 882 986 m 735 924 l 636 924 l 558 821 l 633 821 l 735 924 z "},"û":{"ha":1203,"x_min":28,"x_max":1181,"o":"m 1181 63 l 1181 0 l 165 0 l 165 589 l 28 589 l 28 651 l 397 651 l 397 63 l 969 63 l 969 589 l 821 589 l 821 651 l 1032 651 l 1032 63 l 1181 63 m 335 589 l 228 589 l 228 63 l 335 63 l 335 589 m 847 758 l 769 758 l 676 890 l 550 758 l 318 758 l 490 986 l 685 986 l 847 758 m 619 924 l 521 924 l 443 821 l 518 821 l 619 924 z "},"ü":{"ha":1203,"x_min":28,"x_max":1181,"o":"m 1181 63 l 1181 0 l 165 0 l 165 589 l 28 589 l 28 651 l 397 651 l 397 63 l 969 63 l 969 589 l 821 589 l 821 651 l 1032 651 l 1032 63 l 1181 63 m 335 589 l 228 589 l 228 63 l 335 63 l 335 589 m 550 758 l 321 758 l 321 956 l 550 956 l 550 758 m 488 893 l 383 893 l 383 821 l 488 821 l 488 893 m 871 758 l 642 758 l 642 956 l 871 956 l 871 758 m 808 893 l 704 893 l 704 821 l 808 821 l 808 893 z "},"ý":{"ha":1222,"x_min":22,"x_max":1194,"o":"m 1194 589 l 1057 589 l 1057 -314 l 171 -314 l 171 -144 l 233 -144 l 233 -251 l 825 -251 l 825 0 l 171 0 l 171 589 l 22 589 l 22 651 l 382 651 l 382 589 l 233 589 l 233 63 l 825 63 l 825 589 l 688 589 l 688 651 l 1194 651 l 1194 589 m 994 589 l 888 589 l 888 -251 l 994 -251 l 994 589 m 832 986 l 615 758 l 383 758 l 556 986 l 832 986 m 685 924 l 586 924 l 508 821 l 583 821 l 685 924 z "},"þ":{"ha":1053,"x_min":-54,"x_max":969,"o":"m 315 0 l 315 -251 l 453 -251 l 453 -314 l -54 -314 l -54 -251 l 83 -251 l 83 903 l -54 903 l -54 965 l 315 965 l 315 651 l 969 651 l 969 0 l 315 0 m 315 63 l 907 63 l 907 589 l 315 589 l 315 63 m 253 903 l 146 903 l 146 -251 l 253 -251 l 253 903 z "},"ÿ":{"ha":1222,"x_min":22,"x_max":1194,"o":"m 1194 589 l 1057 589 l 1057 -314 l 171 -314 l 171 -144 l 233 -144 l 233 -251 l 825 -251 l 825 0 l 171 0 l 171 589 l 22 589 l 22 651 l 382 651 l 382 589 l 233 589 l 233 63 l 825 63 l 825 589 l 688 589 l 688 651 l 1194 651 l 1194 589 m 994 589 l 888 589 l 888 -251 l 994 -251 l 994 589 m 550 758 l 321 758 l 321 956 l 550 956 l 550 758 m 488 893 l 383 893 l 383 821 l 488 821 l 488 893 m 871 758 l 642 758 l 642 956 l 871 956 l 871 758 m 808 893 l 704 893 l 704 821 l 808 821 l 808 893 z "},"ı":{"ha":583,"x_min":49,"x_max":556,"o":"m 418 63 l 556 63 l 556 0 l 49 0 l 49 63 l 186 63 l 186 589 l 49 589 l 49 651 l 418 651 l 418 63 m 356 589 l 249 589 l 249 63 l 356 63 l 356 589 z "},"Œ":{"ha":2365,"x_min":92,"x_max":2297,"o":"m 2235 708 l 2235 903 l 1394 903 l 1394 514 l 2008 514 l 2008 651 l 2072 651 l 2072 314 l 2008 314 l 2008 451 l 1394 451 l 1394 63 l 2235 63 l 2235 257 l 2297 257 l 2297 0 l 92 0 l 92 965 l 2297 965 l 2297 708 l 2235 708 m 324 63 l 1163 63 l 1163 903 l 324 903 l 324 63 m 1332 903 l 1225 903 l 1225 63 l 1332 63 l 1332 903 m 261 63 l 261 903 l 154 903 l 154 63 l 261 63 z "},"œ":{"ha":1831,"x_min":83,"x_max":1754,"o":"m 83 651 l 1754 651 l 1754 294 l 1119 294 l 1119 63 l 1692 63 l 1692 169 l 1754 169 l 1754 0 l 83 0 l 83 651 m 888 589 l 315 589 l 315 63 l 888 63 l 888 589 m 1119 589 l 1119 357 l 1692 357 l 1692 589 l 1119 589 m 253 589 l 146 589 l 146 63 l 253 63 l 253 589 m 950 63 l 1057 63 l 1057 589 l 950 589 l 950 63 z "},"Š":{"ha":1306,"x_min":86,"x_max":1219,"o":"m 418 1257 l 496 1257 l 589 1125 l 715 1257 l 947 1257 l 775 1029 l 581 1029 l 418 1257 m 646 1092 l 744 1092 l 822 1194 l 747 1194 l 646 1092 m 1219 965 l 1219 708 l 1157 708 l 1157 903 l 318 903 l 318 514 l 1219 514 l 1219 0 l 86 0 l 86 257 l 149 257 l 149 63 l 988 63 l 988 451 l 86 451 l 86 965 l 1219 965 m 1050 451 l 1050 63 l 1157 63 l 1157 451 l 1050 451 m 254 903 l 149 903 l 149 514 l 254 514 l 254 903 z "},"š":{"ha":1019,"x_min":76,"x_max":943,"o":"m 943 651 l 943 482 l 881 482 l 881 589 l 308 589 l 308 357 l 943 357 l 943 0 l 76 0 l 76 169 l 139 169 l 139 63 l 711 63 l 711 294 l 76 294 l 76 651 l 943 651 m 774 294 l 774 63 l 881 63 l 881 294 l 774 294 m 246 589 l 139 589 l 139 357 l 246 357 l 246 589 m 253 986 l 331 986 l 424 854 l 550 986 l 782 986 l 610 758 l 415 758 l 253 986 m 481 821 l 579 821 l 657 924 l 582 924 l 481 821 z "},"Ÿ":{"ha":1283,"x_min":-7,"x_max":1290,"o":"m 953 965 l 1290 965 l 1290 903 l 1136 903 l 758 471 l 758 63 l 896 63 l 896 0 l 389 0 l 389 63 l 526 63 l 526 471 l 149 903 l -7 903 l -7 965 l 332 965 l 332 903 l 232 903 l 572 514 l 713 514 l 1053 903 l 953 903 l 953 965 m 696 63 l 696 451 l 589 451 l 589 63 l 696 63 m 596 1036 l 367 1036 l 367 1233 l 596 1233 l 596 1036 m 533 1171 l 429 1171 l 429 1099 l 533 1099 l 533 1171 m 917 1036 l 688 1036 l 688 1233 l 917 1233 l 917 1036 m 854 1171 l 750 1171 l 750 1099 l 854 1099 l 854 1171 z "},"Ž":{"ha":1251,"x_min":35,"x_max":1218,"o":"m 349 1264 l 426 1264 l 519 1132 l 646 1264 l 878 1264 l 706 1036 l 511 1036 l 349 1264 m 576 1099 l 675 1099 l 753 1201 l 678 1201 l 576 1099 m 1199 257 l 1199 0 l 35 0 l 850 903 l 117 903 l 117 708 l 54 708 l 54 965 l 1218 965 l 404 63 l 1136 63 l 1136 257 l 1199 257 m 1078 903 l 933 903 l 176 63 l 319 63 l 1078 903 z "},"ž":{"ha":974,"x_min":39,"x_max":935,"o":"m 853 169 l 915 169 l 915 0 l 39 0 l 567 589 l 124 589 l 124 482 l 61 482 l 61 651 l 935 651 l 408 63 l 853 63 l 853 169 m 324 63 l 792 589 l 649 589 l 181 63 l 324 63 m 239 986 l 317 986 l 410 854 l 536 986 l 768 986 l 596 758 l 401 758 l 239 986 m 467 821 l 565 821 l 643 924 l 568 924 l 467 821 z "},"ƒ":{"ha":1126,"x_min":83,"x_max":1072,"o":"m 1072 965 l 1072 708 l 1010 708 l 1010 903 l 453 903 l 453 488 l 846 488 l 846 425 l 453 425 l 453 -133 l 590 -133 l 590 -196 l 83 -196 l 83 -133 l 221 -133 l 221 425 l 83 425 l 83 488 l 221 488 l 221 903 l 83 903 l 83 965 l 1072 965 m 390 903 l 283 903 l 283 -133 l 390 -133 l 390 903 z "},"ˆ":{"ha":728,"x_min":92,"x_max":621,"o":"m 621 758 l 543 758 l 450 890 l 324 758 l 92 758 l 264 986 l 458 986 l 621 758 m 393 924 l 294 924 l 217 821 l 292 821 l 393 924 z "},"ˇ":{"ha":697,"x_min":92,"x_max":621,"o":"m 92 986 l 169 986 l 263 854 l 389 986 l 621 986 l 449 758 l 254 758 l 92 986 m 319 821 l 418 821 l 496 924 l 421 924 l 319 821 z "},"˙":{"ha":494,"x_min":132,"x_max":361,"o":"m 361 758 l 132 758 l 132 956 l 361 956 l 361 758 m 299 893 l 194 893 l 194 821 l 299 821 l 299 893 z "},"˚":{"ha":750,"x_min":214,"x_max":510,"o":"m 510 758 l 214 758 l 214 1003 l 510 1003 l 510 758 m 447 940 l 276 940 l 276 821 l 447 821 l 447 940 z "},"˜":{"ha":1018,"x_min":92,"x_max":946,"o":"m 729 758 l 543 758 l 450 890 l 324 758 l 92 758 l 264 986 l 458 986 l 560 843 l 669 986 l 946 986 l 729 758 m 799 924 l 700 924 l 622 821 l 697 821 l 799 924 m 393 924 l 294 924 l 217 821 l 292 821 l 393 924 z "},"˝":{"ha":1033,"x_min":92,"x_max":946,"o":"m 540 986 l 324 758 l 92 758 l 264 986 l 540 986 m 393 924 l 294 924 l 217 821 l 292 821 l 393 924 m 946 986 l 729 758 l 497 758 l 669 986 l 946 986 m 799 924 l 700 924 l 622 821 l 697 821 l 799 924 z "},"–":{"ha":889,"x_min":82,"x_max":807,"o":"m 807 356 l 82 356 l 82 568 l 807 568 l 807 356 m 744 506 l 144 506 l 144 418 l 744 418 l 744 506 z "},"—":{"ha":1096,"x_min":82,"x_max":1014,"o":"m 1014 356 l 82 356 l 82 568 l 1014 568 l 1014 356 m 951 506 l 144 506 l 144 418 l 951 418 l 951 506 z "},"‘":{"ha":521,"x_min":-18,"x_max":460,"o":"m 243 1047 l 460 631 l 199 631 l -18 1047 l 243 1047 m 357 693 l 206 985 l 86 985 l 238 693 l 357 693 z "},"’":{"ha":521,"x_min":61,"x_max":539,"o":"m 539 1047 l 322 631 l 61 631 l 278 1047 l 539 1047 m 283 693 l 435 985 l 315 985 l 164 693 l 283 693 z "},"‚":{"ha":503,"x_min":-57,"x_max":421,"o":"m 421 213 l 204 -204 l -57 -204 l 160 213 l 421 213 m 165 -142 l 317 150 l 197 150 l 46 -142 l 165 -142 z "},"“":{"ha":906,"x_min":-18,"x_max":844,"o":"m 628 1047 l 844 631 l 583 631 l 367 1047 l 628 1047 m 742 693 l 590 985 l 471 985 l 622 693 l 742 693 m 243 1047 l 460 631 l 199 631 l -18 1047 l 243 1047 m 357 693 l 206 985 l 86 985 l 238 693 l 357 693 z "},"”":{"ha":906,"x_min":61,"x_max":924,"o":"m 539 1047 l 322 631 l 61 631 l 278 1047 l 539 1047 m 283 693 l 435 985 l 315 985 l 164 693 l 283 693 m 924 1047 l 707 631 l 446 631 l 663 1047 l 924 1047 m 668 693 l 819 985 l 700 985 l 549 693 l 668 693 z "},"„":{"ha":888,"x_min":-57,"x_max":806,"o":"m 421 213 l 204 -204 l -57 -204 l 160 213 l 421 213 m 165 -142 l 317 150 l 197 150 l 46 -142 l 165 -142 m 806 213 l 589 -204 l 328 -204 l 544 213 l 806 213 m 550 -142 l 701 150 l 582 150 l 431 -142 l 550 -142 z "},"†":{"ha":778,"x_min":53,"x_max":725,"o":"m 725 678 l 725 614 l 504 614 l 504 -85 l 272 -85 l 272 614 l 53 614 l 53 678 l 272 678 l 272 986 l 504 986 l 504 678 l 725 678 m 440 924 l 335 924 l 335 -22 l 440 -22 l 440 924 z "},"‡":{"ha":808,"x_min":68,"x_max":740,"o":"m 519 614 l 519 288 l 740 288 l 740 224 l 519 224 l 519 -85 l 288 -85 l 288 224 l 68 224 l 68 288 l 288 288 l 288 614 l 68 614 l 68 678 l 288 678 l 288 986 l 519 986 l 519 678 l 740 678 l 740 614 l 519 614 m 456 924 l 350 924 l 350 -22 l 456 -22 l 456 924 z "},"•":{"ha":550,"x_min":110,"x_max":440,"o":"m 440 329 l 110 329 l 110 594 l 440 594 l 440 329 z "},"…":{"ha":1639,"x_min":82,"x_max":1557,"o":"m 349 0 l 82 0 l 82 213 l 349 213 l 349 0 m 286 150 l 144 150 l 144 63 l 286 63 l 286 150 m 953 0 l 686 0 l 686 213 l 953 213 l 953 0 m 890 150 l 749 150 l 749 63 l 890 63 l 890 150 m 1557 0 l 1290 0 l 1290 213 l 1557 213 l 1557 0 m 1494 150 l 1353 150 l 1353 63 l 1494 63 l 1494 150 z "},"‰":{"ha":1717,"x_min":61,"x_max":1657,"o":"m 1225 965 l 347 0 l 61 0 l 939 965 l 1225 965 m 1082 903 l 967 903 l 203 63 l 318 63 l 1082 903 m 99 965 l 478 965 l 478 690 l 99 690 l 99 965 m 161 753 l 415 753 l 415 903 l 161 903 l 161 753 m 810 275 l 1189 275 l 1189 0 l 810 0 l 810 275 m 872 63 l 1126 63 l 1126 213 l 872 213 l 872 63 m 1278 275 l 1657 275 l 1657 0 l 1278 0 l 1278 275 m 1340 63 l 1594 63 l 1594 213 l 1340 213 l 1340 63 z "},"‹":{"ha":714,"x_min":49,"x_max":619,"o":"m 619 719 l 619 650 l 375 525 l 619 401 l 619 143 l 49 431 l 619 719 m 306 490 l 189 432 l 557 246 l 557 364 l 306 490 z "},"›":{"ha":718,"x_min":96,"x_max":667,"o":"m 96 143 l 96 213 l 340 338 l 96 461 l 96 719 l 667 432 l 96 143 m 410 372 l 526 431 l 158 617 l 158 499 l 410 372 z "},"⁄":{"ha":997,"x_min":-33,"x_max":1036,"o":"m 1036 1025 l 203 -61 l -33 -61 l 800 1025 l 1036 1025 m 908 963 l 831 963 l 93 1 l 171 1 l 908 963 z "},"€":{"ha":1363,"x_min":76,"x_max":1282,"o":"m 1219 708 l 1219 903 l 446 903 l 446 599 l 757 599 l 757 536 l 446 536 l 446 431 l 757 431 l 757 368 l 446 368 l 446 63 l 1219 63 l 1219 257 l 1282 257 l 1282 0 l 76 0 l 76 63 l 214 63 l 214 368 l 76 368 l 76 431 l 214 431 l 214 536 l 76 536 l 76 599 l 214 599 l 214 903 l 76 903 l 76 965 l 1282 965 l 1282 708 l 1219 708 m 383 903 l 278 903 l 278 63 l 383 63 l 383 903 z "},"™":{"ha":2153,"x_min":93,"x_max":2061,"o":"m 135 836 l 93 836 l 93 965 l 818 965 l 818 836 l 776 836 l 776 924 l 561 924 l 561 528 l 657 528 l 657 486 l 256 486 l 256 528 l 350 528 l 350 924 l 135 924 l 135 836 m 392 528 l 519 528 l 519 924 l 392 924 l 392 528 m 1967 528 l 2061 528 l 2061 486 l 1661 486 l 1661 528 l 1756 528 l 1756 871 l 1489 489 l 1224 871 l 1224 528 l 1318 528 l 1318 486 l 918 486 l 918 528 l 1013 528 l 1013 924 l 918 924 l 918 965 l 1215 965 l 1489 571 l 1764 965 l 2061 965 l 2061 924 l 1967 924 l 1967 528 m 1181 924 l 1054 924 l 1054 528 l 1181 528 l 1181 924 m 1925 924 l 1799 924 l 1799 528 l 1925 528 l 1925 924 z "},"−":{"ha":813,"x_min":82,"x_max":731,"o":"m 731 356 l 82 356 l 82 568 l 731 568 l 731 356 m 668 506 l 144 506 l 144 418 l 668 418 l 668 506 z "}}}
